<?xml version="1.0" encoding="utf-8"?>
<!-- Generator: Adobe Illustrator 25.0.1, SVG Export Plug-In . SVG Version: 6.00 Build 0)  -->
<svg version="1.1" id="Layer_1" xmlns="http://www.w3.org/2000/svg" xmlns:xlink="http://www.w3.org/1999/xlink" x="0px" y="0px"
	 viewBox="0 0 349.7 286.9" style="enable-background:new 0 0 349.7 286.9;" xml:space="preserve">
<style type="text/css">
	.st0{display:none;}
	.st1{display:inline;}
	.st2{fill:#263238;stroke:#263238;stroke-linecap:round;stroke-linejoin:round;stroke-miterlimit:10;}
	.st3{fill:#537CF0;}
	.st4{fill:#FFFFFF;stroke:#263238;stroke-linecap:round;stroke-linejoin:round;stroke-miterlimit:10;}
	.st5{fill:none;stroke:#263238;stroke-linecap:round;stroke-linejoin:round;stroke-miterlimit:10;}
	.st6{fill:none;stroke:#263238;stroke-width:2;stroke-linecap:round;stroke-linejoin:round;stroke-miterlimit:10;}
	.st7{fill:#E0E0E0;}
	.st8{fill:#263238;}
	.st9{fill:#999999;stroke:#263238;stroke-linecap:round;stroke-linejoin:round;stroke-miterlimit:10;}
	.st10{fill:#FFFFFF;}
	.st11{fill:none;stroke:#FFFFFF;stroke-miterlimit:10;}
	.st12{fill:#C2C2C2;stroke:#263238;stroke-linecap:round;stroke-linejoin:round;stroke-miterlimit:10;}
	.st13{fill:#75CFAF;}
	.st14{fill:#3E5056;}
	.st15{fill:#BABABA;stroke:#263238;stroke-linecap:round;stroke-linejoin:round;stroke-miterlimit:10;}
	.st16{fill:#FFFFFF;stroke:#263238;stroke-width:2;stroke-linecap:round;stroke-linejoin:round;stroke-miterlimit:10;}
	.st17{fill:#6E6E6E;}
	.st18{fill:#B5B5B5;stroke:#263238;stroke-linecap:round;stroke-linejoin:round;stroke-miterlimit:10;}
	.st19{fill:#367DF3;}
	.st20{fill:#FAFAFA;}
	.st21{opacity:0.7;}
	.st22{opacity:0.4;}
	.st23{opacity:0.5;}
	.st24{fill:none;stroke:#839198;stroke-miterlimit:10;}
	.st25{fill:#455A64;}
	.st26{fill:#1A2E35;stroke:#1A2E35;stroke-linecap:round;stroke-linejoin:round;stroke-miterlimit:10;}
	.st27{fill:#EBEBEB;}
	.st28{fill:#F5F5F5;}
</style>
<g id="Background_Simple" class="st0">
</g>
<g id="Car" class="st0">
	<g class="st1">
		<path class="st2" d="M103.6,262.5h-3.5c-1.1,0-2-0.9-2-2v-0.7c0-1.1,0.9-2,2-2h3.5c1.1,0,2,0.9,2,2v0.7
			C105.6,261.6,104.7,262.5,103.6,262.5z"/>
		<path class="st3" d="M123.6,246.5h30.2l15.4,11.4l26.4,4.6v13.9H77.3l-8.9-4v-5.2l36.9-7.7l15.8-12
			C121.8,246.8,122.7,246.5,123.6,246.5z"/>
		<path class="st4" d="M128.9,259.4h-24l15.8-12c0.7-0.6,1.7-0.9,2.7-0.9h22.5L128.9,259.4z"/>
		<g>
			<circle class="st4" cx="113.9" cy="277.5" r="8.9"/>
			<circle class="st2" cx="116.6" cy="277.5" r="8.9"/>
			<circle class="st4" cx="116.6" cy="277.5" r="4.6"/>
		</g>
		<path class="st2" d="M93.6,268.6c-0.5,0-0.9,0.1-1.4,0.1c-0.4-0.1-0.9-0.1-1.4-0.1c-4.9,0-8.9,4-8.9,8.9c0,4.9,4,8.9,8.9,8.9
			c0.5,0,0.9-0.1,1.4-0.1c0.4,0.1,0.9,0.1,1.4,0.1c4.9,0,8.9-4,8.9-8.9C102.4,272.6,98.5,268.6,93.6,268.6z"/>
		<path class="st2" d="M161.5,268.6c-0.5,0-0.9,0.1-1.4,0.1c-0.4-0.1-0.9-0.1-1.4-0.1c-4.9,0-8.9,4-8.9,8.9c0,4.9,4,8.9,8.9,8.9
			c0.5,0,0.9-0.1,1.4-0.1c0.4,0.1,0.9,0.1,1.4,0.1c4.9,0,8.9-4,8.9-8.9C170.4,272.6,166.4,268.6,161.5,268.6z"/>
		<g>
			<circle class="st4" cx="180.2" cy="277.5" r="8.9"/>
			
				<ellipse transform="matrix(0.1602 -0.9871 0.9871 0.1602 -120.2808 413.6768)" class="st2" cx="183" cy="277.5" rx="8.9" ry="8.9"/>
			<circle class="st4" cx="183" cy="277.5" r="4.6"/>
		</g>
		<path class="st3" d="M192.8,257.9l-13.6-10c-1.2-0.8-2.5-1.3-4-1.3h-29.5l-16.9,12.9L92,267.1v5.2l8.9,4h6
			c-0.1-0.4-0.2-0.9-0.2-1.4v-0.3c0-3.7,3-6.6,6.6-6.6h6.7c3.7,0,6.6,3,6.6,6.6v0.3c0,0.5-0.1,0.9-0.2,4.7h46.6
			c-0.1-3.8-0.2-4.3-0.2-4.7v-0.3c0-3.7,3-6.6,6.6-6.6h6.7c3.7,0,6.6,3,6.6,6.6v0.3c0,0.5-0.1,0.9-0.2,1.4h9.8V266
			c0-2.2-1.2-4.2-3.2-5.1L192.8,257.9z"/>
		<polygon class="st4" points="160.2,248.6 146.5,248.6 132.4,259.4 160.2,259.4 		"/>
		<path class="st4" d="M162.5,248.6h11.2c1.5,0,2.9,0.5,4.1,1.3l12.3,9.4h-27.5L162.5,248.6L162.5,248.6z"/>
		<rect x="68.4" y="267.1" class="st4" width="23.7" height="5.2"/>
		<rect x="196.8" y="273.2" class="st2" width="7.7" height="4.3"/>
		<rect x="67.5" y="272.3" class="st2" width="32.9" height="5.2"/>
		<path class="st2" d="M138.6,262.5h-3.5c-1.1,0-2-0.9-2-2v-0.7c0-1.1,0.9-2,2-2h3.5c1.1,0,2,0.9,2,2v0.7
			C140.6,261.6,139.7,262.5,138.6,262.5z"/>
		<rect x="85.3" y="267.4" class="st4" width="5.6" height="4.3"/>
		<rect x="69.3" y="267.4" class="st4" width="5.6" height="4.3"/>
		<line class="st5" x1="74.8" y1="269" x2="85" y2="269"/>
		<line class="st5" x1="74.8" y1="270.6" x2="85" y2="270.6"/>
		<line class="st6" x1="130.3" y1="274.5" x2="170.7" y2="274.5"/>
		<path class="st5" d="M161.2,247.6v29.8h-31.5v-3.6c0-2.1-0.6-4.2-1.7-5.9l-1-1.5l5.5-4.9"/>
		<path class="st5" d="M190.4,260.1v6.8h-12c-1.6,0-3.1,0.7-4.2,1.7l-0.7,0.7c-1.1,1.1-1.7,2.7-1.7,4.2v3.6h-9"/>
		<rect x="156.5" y="262.7" class="st2" width="3.7" height="2.2"/>
		<rect x="185.5" y="262.7" class="st2" width="3.7" height="2.2"/>
	</g>
</g>
<g>
	<g id="Binder">
		<g>
			<rect x="57.1" y="46.3" class="st7" width="113.3" height="167.3"/>
			<rect x="64.4" y="54.5" class="st8" width="98.7" height="151.3"/>
			<g>
				<path class="st9" d="M138.7,58.4H88.8V46.7c0-3.1,2.5-5.5,5.5-5.5h38.9c3.1,0,5.5,2.5,5.5,5.5L138.7,58.4L138.7,58.4z"/>
				<path class="st9" d="M117.1,34.1h-6.6c-3.2,0-5.9,2.7-5.9,5.9v1.1h18.5V40C123,36.8,120.4,34.1,117.1,34.1z"/>
			</g>
			<ellipse class="st3" cx="138.7" cy="78.4" rx="15.9" ry="15.9"/>
			<polygon class="st10" points="149.8,74.4 143,74.4 143,67.6 134.9,67.6 134.9,74.4 128.1,74.4 128.1,82.4 134.9,82.4 134.9,89.2 
				143,89.2 143,82.4 149.8,82.4 			"/>
			<line class="st11" x1="73" y1="78" x2="111.5" y2="78"/>
			<line class="st11" x1="73" y1="85.9" x2="111.5" y2="85.9"/>
			<line class="st11" x1="73" y1="112.2" x2="154.2" y2="112.2"/>
			<g>
				<rect x="73.4" y="119.7" class="st11" width="9.4" height="9.9"/>
				<rect x="117.1" y="119.7" class="st11" width="9.4" height="9.9"/>
				<line class="st11" x1="86.6" y1="129.6" x2="109.6" y2="129.6"/>
				<line class="st11" x1="130.3" y1="129.6" x2="153.2" y2="129.6"/>
			</g>
			<g>
				<rect x="73.4" y="139" class="st11" width="9.4" height="9.9"/>
				<rect x="117.1" y="139" class="st11" width="9.4" height="9.9"/>
				<line class="st11" x1="86.6" y1="148.8" x2="109.6" y2="148.8"/>
				<line class="st11" x1="130.3" y1="148.8" x2="153.2" y2="148.8"/>
			</g>
			<g>
				<rect x="73.4" y="158.2" class="st11" width="9.4" height="9.9"/>
				<rect x="117.1" y="158.2" class="st11" width="9.4" height="9.9"/>
				<line class="st11" x1="86.6" y1="168.1" x2="109.6" y2="168.1"/>
				<line class="st5" x1="130.3" y1="168.1" x2="153.2" y2="168.1"/>
			</g>
			<g>
				<rect x="73.4" y="177.5" class="st11" width="9.4" height="9.9"/>
				<rect x="117.1" y="177.5" class="st11" width="9.4" height="9.9"/>
				<line class="st11" x1="86.6" y1="187.4" x2="109.6" y2="187.4"/>
				<line class="st5" x1="130.3" y1="187.4" x2="153.2" y2="187.4"/>
			</g>
		</g>
	</g>
	<g id="Money">
		<g>
			<g>
				<rect x="185.4" class="st7" width="86.8" height="163"/>
				<path class="st4" d="M263.2,19.4c-4.6,0-8.3-3.7-8.3-8.3h-52.8c0,4.6-3.7,8.3-8.3,8.3v123.4c4.6,0,8.3,3.7,8.3,8.3
					c0,0.2,0,0.3,0,0.6H255c0-0.2,0-0.3,0-0.6c0-4.6,3.7-8.3,8.3-8.3c0.2,0,0.3,0,0.6,0V19.4C263.7,19.4,263.4,19.4,263.2,19.4z
					 M228.8,106.8c-13.9,0-25.3-11.3-25.3-25.3c0-13.9,11.3-25.3,25.3-25.3c13.9,0,25.3,11.3,25.3,25.3
					C254.1,95.4,242.7,106.8,228.8,106.8z"/>
			</g>
			<g>
				
					<rect x="159.1" y="45.7" transform="matrix(0.1543 -0.988 0.988 0.1543 115.5213 313.0145)" class="st7" width="163" height="86.7"/>
				<path class="st4" d="M284.2,33c-4.6-0.7-7.6-5-7-9.5l-52.2-8.1c-0.7,4.6-5,7.6-9.5,7l-19,122c4.6,0.7,7.6,5,7,9.5
					c0,0.2-0.1,0.3-0.1,0.6l52.2,8.1c0-0.2,0-0.3,0.1-0.6c0.7-4.6,5-7.6,9.5-7c0.2,0,0.3,0.1,0.6,0.1l19.1-122
					C284.6,33,284.4,33,284.2,33z M236.7,114c-13.8-2.2-23.2-15.1-21.1-28.9c2.2-13.8,15.1-23.2,28.9-21.1
					c13.8,2.2,23.2,15.1,21.1,28.9C263.4,106.7,250.5,116.1,236.7,114z"/>
			</g>
			<g>
				
					<rect x="173.8" y="59.4" transform="matrix(0.3685 -0.9296 0.9296 0.3685 65.7187 302.1941)" class="st7" width="163" height="86.7"/>
				<path class="st4" d="M310.1,57.8c-4.3-1.7-6.4-6.6-4.6-10.8l-49.1-19.5c-1.7,4.3-6.6,6.4-10.8,4.6L200,146.9
					c4.3,1.7,6.4,6.6,4.6,10.8c-0.1,0.2-0.2,0.3-0.2,0.5l49.1,19.5c0.1-0.2,0.1-0.3,0.2-0.5c1.7-4.3,6.6-6.4,10.8-4.6
					c0.2,0.1,0.3,0.2,0.5,0.2l45.5-114.8C310.5,57.9,310.2,57.9,310.1,57.8z M245.9,126.3c-13-5.1-19.3-19.8-14.2-32.9
					c5.1-13,19.8-19.3,32.9-14.2c13,5.1,19.3,19.8,14.2,32.9C273.5,125,258.8,131.4,245.9,126.3z"/>
			</g>
			<g>
				
					<rect x="185.6" y="77.6" transform="matrix(0.5795 -0.815 0.815 0.5795 13.7466 268.5287)" class="st7" width="163" height="86.8"/>
				<path class="st4" d="M331.2,90.3c-3.7-2.7-4.6-7.9-2-11.6l-43.1-30.6c-2.7,3.7-7.9,4.6-11.6,2l-71.6,100.6
					c3.7,2.7,4.6,7.9,2,11.6c-0.1,0.2-0.2,0.3-0.3,0.4l43.1,30.6c0.1-0.2,0.2-0.3,0.3-0.5c2.7-3.7,7.9-4.6,11.6-2
					c0.2,0.1,0.3,0.2,0.4,0.3l71.6-100.6C331.5,90.5,331.3,90.4,331.2,90.3z M252.5,141.5c-11.4-8.1-14-23.9-6-35.3
					c8.1-11.4,23.9-14,35.3-6c11.4,8.1,14,23.9,6,35.3C279.7,146.9,263.9,149.6,252.5,141.5z"/>
			</g>
		</g>
		<g>
			<g>
				<path class="st5" d="M158.3,110.3"/>
				<path class="st5" d="M152.5,110.3"/>
				<path class="st5" d="M157.9,121.7"/>
				<path class="st5" d="M152.1,121.7"/>
			</g>
		</g>
	</g>
	<g id="House">
		<g>
			<polygon class="st9" points="75.6,286.4 24.5,286.4 24.5,231 48.5,206.1 75.6,231 			"/>
			<polygon class="st7" points="243.1,286.4 120.7,286.4 120.7,167.9 191.4,138.4 243.1,167.9 			"/>
			<rect x="73.3" y="220.5" class="st4" width="63.7" height="66"/>
			<rect x="175.6" y="231" class="st12" width="34.9" height="55.5"/>
			<rect x="183.4" y="238.8" class="st4" width="16" height="47.7"/>
			<rect x="186" y="238.8" class="st2" width="11" height="47.7"/>
			<rect x="166.9" y="281.4" class="st4" width="30.1" height="3.1"/>
			<rect x="183.4" y="238.8" class="st4" width="16" height="3.9"/>
			<rect x="37.8" y="238.8" class="st4" width="25.7" height="47.7"/>
			<rect x="41.8" y="238.8" class="st2" width="17.6" height="47.7"/>
			<rect x="37.8" y="238.8" class="st4" width="25.7" height="3.9"/>
			<rect x="134.4" y="229.8" class="st12" width="20.5" height="37"/>
			<polygon class="st4" points="307.5,286.4 219.6,286.4 219.6,167.9 263,138.4 307.5,167.9 			"/>
			<polygon class="st4" points="308.6,168.3 262.9,138.6 219.2,168.5 219.2,171.3 263.2,141.5 308.6,171.1 			"/>
			<polygon class="st13" points="251.8,145.9 214.4,205.7 219.6,206.3 258.4,142.6 307.5,215.1 310.2,214.9 261.2,139.6 			"/>
			<polygon class="st14" points="219.6,167.9 115.5,167.9 156.6,138.4 262.9,139 			"/>
			<rect x="234.9" y="219" class="st15" width="49.3" height="67.4"/>
			<rect x="238.8" y="219" class="st4" width="49.3" height="67.4"/>
			<rect x="246.3" y="229.2" class="st16" width="34.4" height="35.5"/>
			<rect x="256.3" y="229.2" class="st16" width="14.4" height="35.5"/>
			<rect x="229.5" y="216" class="st15" width="60.2" height="6"/>
			<rect x="233.4" y="216" class="st4" width="60.2" height="6"/>
			<g>
				<rect x="198" y="229.8" class="st4" width="3.1" height="32.5"/>
				<rect x="206.5" y="229.8" class="st4" width="3.1" height="32.5"/>
				<rect x="196.9" y="261.8" class="st4" width="5.1" height="3.7"/>
				<rect x="205.5" y="261.8" class="st4" width="5.1" height="3.7"/>
				<rect x="196.9" y="233.1" class="st4" width="5.1" height="2.1"/>
				<rect x="205.5" y="233.1" class="st4" width="5.1" height="2.1"/>
				<rect x="194.5" y="265.2" class="st4" width="17.8" height="21.2"/>
			</g>
			<g>
				<rect x="154.9" y="229.8" class="st4" width="3.1" height="32.5"/>
				<rect x="163.4" y="229.8" class="st4" width="3.1" height="32.5"/>
				<rect x="153.8" y="261.8" class="st4" width="5.1" height="3.7"/>
				<rect x="162.4" y="261.8" class="st4" width="5.1" height="3.7"/>
				<rect x="153.8" y="233.1" class="st4" width="5.1" height="2.1"/>
				<rect x="162.4" y="233.1" class="st4" width="5.1" height="2.1"/>
				<rect x="151.4" y="265.2" class="st4" width="17.8" height="21.2"/>
				<rect x="130.1" y="265.2" class="st9" width="21.8" height="21.2"/>
			</g>
			<polygon class="st4" points="212.4,232.9 144.9,232.9 156.4,226.8 212.4,226.8 			"/>
			<line class="st5" x1="246.6" y1="238.3" x2="280.3" y2="238.3"/>
			<line class="st5" x1="246.6" y1="246.6" x2="280.3" y2="246.6"/>
			<line class="st5" x1="246.6" y1="255.1" x2="280.3" y2="255.1"/>
			<polygon class="st2" points="45.6,205 21.1,231.5 23.2,231.5 47.2,206.1 			"/>
			<polygon class="st12" points="71.4,230.3 138.3,230.3 188.5,205 45.6,205 			"/>
			<polygon class="st13" points="223.4,205 184.5,205 115.5,230.3 150.1,230.3 			"/>
			<g>
				<path class="st4" d="M310.2,207.8l-45.6-69.9c-0.3-0.6-1-0.9-1.7-0.9s-1.3,0.3-1.7,0.9l-41,67.7L140.9,231v4.1l81.2-26.1
					c0.5-0.2,0.8-0.4,1.1-0.8l39.8-65.7l47.2,72.3L310.2,207.8L310.2,207.8z"/>
			</g>
			<g>
				<rect x="193.5" y="172.3" class="st6" width="13.9" height="22.8"/>
				<line class="st5" x1="200.5" y1="172.8" x2="200.5" y2="194.5"/>
				<line class="st5" x1="207" y1="183.7" x2="193.8" y2="183.7"/>
			</g>
			<g>
				<rect x="96.1" y="239.1" class="st6" width="13.9" height="22.8"/>
				<line class="st5" x1="103" y1="239.7" x2="103" y2="261.3"/>
				<line class="st5" x1="109.7" y1="250.5" x2="96.5" y2="250.5"/>
			</g>
			<g>
				<rect x="255.5" y="171.8" class="st6" width="13.9" height="22.8"/>
				<line class="st5" x1="262.4" y1="172.4" x2="262.4" y2="194.1"/>
				<line class="st5" x1="269.1" y1="183.2" x2="255.9" y2="183.2"/>
			</g>
			<g>
				<rect x="164" y="172.3" class="st6" width="13.9" height="22.8"/>
				<line class="st5" x1="170.8" y1="172.8" x2="170.8" y2="194.5"/>
				<line class="st5" x1="177.5" y1="183.7" x2="164.2" y2="183.7"/>
			</g>
			<g>
				<rect x="134.3" y="172.3" class="st6" width="13.9" height="22.8"/>
				<line class="st5" x1="141.3" y1="172.8" x2="141.3" y2="194.5"/>
				<line class="st5" x1="147.9" y1="183.7" x2="134.7" y2="183.7"/>
			</g>
			<polygon class="st17" points="86.8,221.2 78.9,221.2 69.7,212 77.6,212 			"/>
			<polygon class="st17" points="110.9,221.2 103,221.2 93.9,212 101.8,212 			"/>
			<g>
				<rect x="42.8" y="246" class="st18" width="2.8" height="9.1"/>
				<rect x="45.9" y="246" class="st18" width="2.8" height="9.1"/>
				<rect x="49.1" y="246" class="st18" width="2.8" height="9.1"/>
				<rect x="52.2" y="246" class="st18" width="2.8" height="9.1"/>
				<rect x="55.4" y="246" class="st18" width="2.8" height="9.1"/>
			</g>
			<rect x="70.7" y="230.6" class="st4" width="70.2" height="4.6"/>
			<rect x="114.6" y="230.6" class="st15" width="26.3" height="4.6"/>
			<polygon class="st15" points="70.7,230.6 45.6,205 21.1,231.5 24.5,231.5 45.7,209 70.7,235.3 			"/>
			<rect x="166.9" y="283.6" class="st4" width="30.1" height="2.9"/>
			<rect x="115.1" y="168.5" class="st15" width="104.1" height="2.9"/>
		</g>
	</g>
	<g id="Plants">
		<g>
			<path class="st9" d="M315.3,286.3c0,0-7.1-7.1-5.1-12.6c2-5.5,7.5,2.6,7.5,2.6s0.6-12.6,4.6-12.6s3.2,10.6,3.2,10.6
				s2.3-2.8,4.9-1.2c2.6,1.7,0.2,10.6,0.2,10.6s1.7-7.7,5.5-7.7s0.2,10,0.2,10"/>
			<path class="st5" d="M313.6,286c0,0-4.6-6.3-3.2-7.5s3.4,2.3,3.4,2.3s-1.4-8.3,3.2-8.6c4.6-0.2,2.8,10,2.8,10s2.3-6.3,4.6-4.6
				c2.2,1.7,1.4,6.9,1.4,6.9s0.2-4.3,3.2-4.3c2.8,0,4.6,3.4,4.6,3.4s2.6-4.3,4.6-2.8s0,5.5,0,5.5"/>
		</g>
		<g>
			<path class="st13" d="M224.6,286.3c0,0-5.1-5.1-3.7-9c1.4-3.8,5.3,1.8,5.3,1.8s0.4-9,3.2-9c2.8,0,2.2,7.5,2.2,7.5s1.7-2,3.5-0.8
				c1.8,1.2,0.2,7.5,0.2,7.5s1.2-5.5,3.8-5.5c2.6,0,0.2,7.1,0.2,7.1"/>
			<path class="st5" d="M223.3,286.1c0,0-3.2-4.5-2.2-5.3c1-0.8,2.4,1.7,2.4,1.7s-1-5.9,2.2-6.1c3.2-0.2,2,7.1,2,7.1
				s1.7-4.5,3.2-3.2c1.7,1.2,1,4.9,1,4.9s0.2-3.1,2.2-3.1c2.1,0,3.2,2.4,3.2,2.4s1.8-3.1,3.2-2c1.4,1,0,3.8,0,3.8"/>
		</g>
		<g>
			<path class="st13" d="M5.6,286.3c0,0-5.3-5.3-3.8-9.4s5.6,1.9,5.6,1.9s0.4-9.4,3.4-9.4c3,0,2.3,7.9,2.3,7.9s1.7-2.2,3.7-0.8
				c2,1.3,0.2,7.9,0.2,7.9s1.2-5.7,4.1-5.7s0.2,7.5,0.2,7.5"/>
			<path class="st5" d="M4.3,286.1c0,0-3.4-4.6-2.3-5.6s2.6,1.7,2.6,1.7s-1.1-6.1,2.3-6.4s2.2,7.5,2.2,7.5s1.7-4.6,3.4-3.4
				c1.7,1.2,1.1,5.1,1.1,5.1s0.2-3.2,2.3-3.2c2.2,0,3.4,2.6,3.4,2.6s1.9-3.2,3.4-2.2c1.5,1.1,0,4.1,0,4.1"/>
		</g>
	</g>
	<g id="Floor">
		<line class="st5" x1="0" y1="286.5" x2="341.2" y2="286.5"/>
	</g>
	<g>
		<g>
			<g>
				<g>
					<g>
						<path class="st19" d="M200.8,268.6L200.8,268.6c1.7,1.9,1.8,4.8,0.2,6.7c-0.7,0.8-1.6,1.5-2.6,2l-8.7,3.9l-6.2,1l-80.6-0.5
							l-5.1-1c-2.4-0.5-4.2-2.6-4.1-5.1l0.1-3.5c0-0.5,0.4-1,0.9-1.2l0.4-0.1c0,0,0.3-3.4,2.4-4.2c7.6-3.3,12.6-4.3,25.2-4.8
							l10.7-6.4c0,0,4.3-2.8,8.3-3.1c4-0.4,13.1-0.4,17.3-0.1c4.9,0.3,11.1,2.5,14.6,4.2c2.7,1.3,9.2,4.7,9.2,4.7l3.7,0.6
							c0.6,0,10.8,0.6,11.9,0.8c0.7,0.1,1.6,0.6,1.9,1.6C200.5,265,200.7,268.5,200.8,268.6"/>
					</g>
				</g>
				<g>
					<g>
						<path class="st8" d="M169.5,256.5c-1.7-0.9-6.4-2.1-9-2.6c-2.6-0.5-7.9-0.6-10-0.5c-2.1,0.1-8,0.2-11.1,1
							c-1.6,0.5-4.2,1.8-5.7,2.9c-0.5,0.4-2.8,2.2-3.3,2.6l-4,3.7l48.6-1.5c0,0,0.3-1.7-0.6-2.7
							C173.5,258.4,169.5,256.5,169.5,256.5z"/>
					</g>
				</g>
				<g>
					<g>
						<g>
							<g>
								<g>
									<path class="st20" d="M97.4,270.5l-2.5,0c0.1-0.7,0.4-2.4,1.5-3.4l3.3,0c0.6,0,1,0.7,0.6,1.2l-0.6,1
										C99.2,270.1,98.4,270.6,97.4,270.5z"/>
								</g>
							</g>
						</g>
					</g>
					<g>
						<g>
							<g>
								<g>
									<path class="st7" d="M97.7,270.4c0.3-1.1,0.6-2.5,1.5-3.3l0.5,0c0.6,0,1,0.7,0.6,1.2l-0.6,1c-0.4,0.7-1.2,1.2-2.1,1.3
										C97.7,270.5,97.7,270.4,97.7,270.4z"/>
								</g>
							</g>
						</g>
					</g>
				</g>
				<g>
					<g class="st21">
						<g>
							<g>
								<g>
									<path d="M121.6,281.8c0.3-1.2,0.3-2.5,0.2-3.8c-0.6-5.5-4.2-9.4-9.6-9.5c-4.7-0.1-8.6,2.9-9.4,8.3
										c-0.2,1.6-0.2,3.3,0.2,4.9L121.6,281.8z"/>
								</g>
							</g>
						</g>
					</g>
					<g class="st21">
						<g>
							<g>
								<g>
									<path d="M189.6,281.2c0-0.2,0-0.4,0-0.6c-0.1-6.9-4.7-11.7-10.2-11.7c-5-0.1-9.2,4-9.2,9c0,1.5-0.1,3,0.1,4.2l13.2,0.1
										L189.6,281.2z"/>
								</g>
							</g>
						</g>
					</g>
				</g>
				<g>
					<g>
						<g>
							<g>
								<g>
									<circle class="st8" cx="179.2" cy="278" r="7.9"/>
								</g>
							</g>
						</g>
					</g>
					<g>
						<g>
							<g>
								<g>
									<path class="st8" d="M171.3,277.8C171.3,277.8,171.3,277.8,171.3,277.8c-0.1,4.4,3.4,8,7.8,8.1c4.4,0.1,8-3.4,8.1-7.8
										c0,0,0,0,0,0L171.3,277.8z"/>
								</g>
							</g>
						</g>
					</g>
					<g>
						<g>
							<g>
								<g>
									<circle class="st20" cx="179.2" cy="278" r="5.6"/>
								</g>
							</g>
						</g>
					</g>
					<g>
						<g>
							<g>
								<g>
									<path class="st7" d="M179.3,272.4c-3.1,0-5.6,2.4-5.7,5.5l11.1,0.2C184.8,275,182.4,272.4,179.3,272.4z"/>
								</g>
							</g>
						</g>
					</g>
					<g>
						<g>
							<g>
								<g>
									<circle class="st8" cx="179.2" cy="278" r="3.4"/>
								</g>
							</g>
						</g>
					</g>
				</g>
				<g>
					<g>
						<g>
							<g>
								<g>
									<circle class="st8" cx="112.3" cy="278.2" r="7.9"/>
								</g>
							</g>
						</g>
					</g>
					<g>
						<g>
							<g>
								<g>
									<path class="st8" d="M104.4,278C104.4,278,104.4,278,104.4,278c-0.1,4.4,3.4,8,7.8,8.1c4.4,0.1,8-3.4,8.1-7.8c0,0,0,0,0,0
										L104.4,278z"/>
								</g>
							</g>
						</g>
					</g>
					<g>
						<g>
							<g>
								<g>
									<circle class="st20" cx="112.3" cy="278.2" r="5.6"/>
								</g>
							</g>
						</g>
					</g>
					<g>
						<g>
							<g>
								<g>
									<path class="st7" d="M112.4,272.6c-3.1,0-5.6,2.4-5.7,5.5l11.1,0.2C117.9,275.2,115.5,272.6,112.4,272.6z"/>
								</g>
							</g>
						</g>
					</g>
					<g>
						<g>
							<g>
								<g>
									<circle class="st8" cx="112.3" cy="278.2" r="3.4"/>
								</g>
							</g>
						</g>
					</g>
				</g>
				<g class="st22">
					<g>
						<g>
							<g>
								
									<ellipse transform="matrix(1.390005e-02 -0.9999 0.9999 1.390005e-02 -181.6723 368.45)" cx="96" cy="276.3" rx="1.6" ry="1"/>
							</g>
						</g>
					</g>
				</g>
				<g>
					<g>
						<g>
							<g>
								<g>
									<path class="st8" d="M200.8,268.6c0,0-0.1,0-0.2,0c-0.1,0-0.3,0-0.4,0c-0.4,0-0.9,0-1.6,0c-0.7,0-1.5,0.1-2.4,0.1
										c-0.9,0.1-1.9,0.2-2.9,0.4c-0.5,0.1-1,0.3-1.4,0.5c-0.4,0.2-0.8,0.5-1.2,0.8c-0.7,0.5-1.2,1.2-1.7,1.6
										c-0.5,0.5-0.9,0.8-1.2,1c-0.2,0.1-0.3,0.2-0.4,0.2c-0.1,0-0.1,0.1-0.1,0.1c0,0,0.2-0.1,0.5-0.3c0.3-0.2,0.7-0.6,1.2-1.1
										c0.5-0.5,1-1.1,1.7-1.7c0.4-0.3,0.7-0.6,1.2-0.8c0.4-0.2,0.9-0.4,1.4-0.5c1-0.2,2-0.3,2.9-0.4c0.9-0.1,1.7-0.1,2.4-0.1
										c0.7,0,1.2,0,1.6,0c0.2,0,0.3,0,0.4,0C200.7,268.5,200.8,268.6,200.8,268.6z"/>
								</g>
							</g>
						</g>
					</g>
				</g>
				<g class="st23">
					<g>
						<g>
							<g>
								<g>
									<path class="st10" d="M189.4,281.4C189.4,281.4,189.4,281.3,189.4,281.4c0.2-0.1,0.3-0.2,0.4-0.3c0.2-0.2,0.5-0.5,0.7-1
										c0.2-0.5,0.3-1.2,0.3-2c-0.1-0.8-0.2-1.7-0.5-2.6c-0.3-1-0.7-2-1.3-3c-0.6-1-1.4-2-2.4-2.9c-1-0.9-2.2-1.6-3.6-2
										c-1.4-0.4-2.9-0.5-4.4-0.4c-1.5,0.2-3,0.6-4.3,1.1c-1.3,0.6-2.5,1.3-3.4,2.3c-0.9,1-1.5,2.1-1.9,3.2
										c-0.4,1.1-0.7,2.2-0.8,3.1c-0.1,0.5-0.1,1-0.2,1.4c0,0.4-0.1,0.9-0.1,1.3c0,0.8,0.3,1.5,0.7,1.8c0.4,0.4,0.8,0.5,1.1,0.6
										c0.3,0,0.4,0,0.4,0c0,0,0,0-0.1,0s-0.2,0-0.3,0c-0.3,0-0.7-0.1-1.1-0.5c-0.4-0.4-0.7-1.1-0.7-1.9c0-0.4,0-0.8,0-1.3
										c0-0.4,0.1-0.9,0.2-1.4c0.2-1,0.4-2.1,0.8-3.2c0.2-0.5,0.5-1.1,0.8-1.6c0.3-0.5,0.7-1.1,1.2-1.6c0.9-1,2.1-1.8,3.4-2.3
										c1.3-0.6,2.8-1,4.3-1.1c1.5-0.2,3,0,4.4,0.4c1.4,0.4,2.6,1.2,3.6,2c1,0.9,1.8,1.9,2.4,2.9c0.6,1,1,2.1,1.3,3
										c0.3,1,0.4,1.9,0.5,2.7c0.1,0.8,0,1.5-0.3,2c-0.2,0.5-0.5,0.8-0.8,1C189.5,281.3,189.4,281.4,189.4,281.4z"/>
								</g>
							</g>
						</g>
					</g>
				</g>
				<g>
					<g>
						<g>
							<g>
								<g>
									<path class="st24" d="M174,279.7"/>
								</g>
							</g>
						</g>
					</g>
				</g>
				<g>
					<g>
						<g>
							<g>
								<g>
									<path class="st8" d="M102.9,276.8c0,0-0.1-0.1-0.3-0.3c-0.2-0.2-0.4-0.5-0.8-0.7c-0.7-0.6-1.8-1.2-3.2-1.5
										c-1.4-0.3-2.6-0.3-3.5-0.2c-0.5,0-0.8,0-1.1,0.1c-0.3,0-0.4,0-0.4,0c0,0,0,0,0.1,0c0.1,0,0.2,0,0.3,0
										c0.3,0,0.6-0.1,1.1-0.1c0.9-0.1,2.2-0.1,3.6,0.2c1.4,0.3,2.5,0.9,3.2,1.5c0.4,0.3,0.6,0.6,0.8,0.8
										C102.8,276.5,102.8,276.6,102.9,276.8C102.9,276.7,102.9,276.8,102.9,276.8z"/>
								</g>
							</g>
						</g>
					</g>
				</g>
				<g>
					<g>
						<g>
							<g>
								<g>
									
										<ellipse transform="matrix(1.429997e-02 -0.9999 0.9999 1.429997e-02 -173.5439 365.5751)" class="st8" cx="98.6" cy="270.8" rx="0.1" ry="4.2"/>
								</g>
							</g>
						</g>
					</g>
				</g>
				<g class="st23">
					<g>
						<g>
							<g>
								<g>
									<path class="st10" d="M124.4,281c0,0,0,0,0-0.1c0-0.1,0-0.2,0-0.3c0-0.1,0-0.3,0-0.5c0-0.2,0-0.4-0.1-0.7
										c-0.1-1.1-0.3-2.6-1-4.4c-0.3-0.9-0.7-1.9-1.3-2.8s-1.2-2-2-2.9c-0.8-0.9-1.9-1.7-3.2-2.2c-1.3-0.5-2.7-0.8-4.1-0.8
										c-0.7,0-1.4,0-2.1,0.2c-0.7,0.1-1.4,0.3-2,0.5c-0.6,0.2-1.3,0.5-1.8,0.8l-0.2,0.1l-0.2,0.1c-0.1,0.1-0.3,0.2-0.4,0.3
										c-0.1,0.1-0.3,0.2-0.4,0.3l-0.2,0.1l-0.2,0.1c-1,0.8-1.8,1.7-2.4,2.6c-0.6,0.9-1.1,1.9-1.4,2.8c-0.3,0.9-0.5,1.7-0.6,2.5
										c0,0.4-0.1,0.7-0.1,1c0,0.3,0,0.6,0,0.9c0,0.3,0,0.5,0,0.7c0,0.2,0,0.4,0.1,0.5c0,0.1,0,0.2,0,0.3c0,0.1,0,0.1,0,0.1
										s0,0,0-0.1c0-0.1,0-0.2-0.1-0.3c0-0.1-0.1-0.3-0.1-0.5c0-0.2-0.1-0.4,0-0.7c0-0.3,0-0.6,0-0.9c0-0.3,0-0.7,0.1-1.1
										c0.1-0.8,0.3-1.6,0.6-2.5c0.3-0.9,0.8-1.9,1.4-2.8c0.6-0.9,1.4-1.8,2.4-2.6l0.2-0.1l0.2-0.1c0.1-0.1,0.3-0.2,0.4-0.3
										c0.1-0.1,0.3-0.2,0.4-0.3l0.2-0.1l0.2-0.1c0.6-0.3,1.2-0.6,1.9-0.8c0.7-0.2,1.3-0.4,2-0.5c0.7-0.1,1.4-0.2,2.2-0.2
										c1.5,0,2.9,0.3,4.1,0.9c1.3,0.5,2.4,1.3,3.2,2.3c0.8,0.9,1.5,2,2,3c0.5,1,0.9,2,1.3,2.9c0.6,1.8,0.9,3.3,0.9,4.4
										C124.4,280.4,124.4,281,124.4,281z"/>
								</g>
							</g>
						</g>
					</g>
				</g>
				<g>
					<g>
						<g>
							<g>
								<g>
									<path class="st8" d="M186.4,261.7c0,0,0,0,0,0.1c0,0.1,0,0.2,0,0.3c0,0.3-0.1,0.7-0.1,1.2c0,0.5,0,1.1,0.1,1.8
										c0.1,0.7,0.5,1.4,1,1.9c0.5,0.6,1.2,0.9,1.8,1.2c0.6,0.3,1.2,0.4,1.7,0.5c0.5,0.1,0.9,0.2,1.2,0.2c0.1,0,0.2,0,0.3,0.1
										c0.1,0,0.1,0,0.1,0c0,0,0,0-0.1,0c-0.1,0-0.2,0-0.3,0c-0.3,0-0.7-0.1-1.2-0.2c-0.5-0.1-1.1-0.2-1.8-0.5
										c-0.6-0.3-1.3-0.6-1.9-1.2c-0.6-0.6-0.9-1.3-1-2c-0.1-0.7-0.1-1.3-0.1-1.8c0-0.5,0.1-0.9,0.2-1.2c0-0.1,0-0.3,0.1-0.3
										C186.4,261.7,186.4,261.7,186.4,261.7z"/>
								</g>
							</g>
						</g>
					</g>
				</g>
				<g>
					<g>
						<g>
							<g>
								<g>
									<path class="st8" d="M146.1,266C146.1,266,146.1,266,146.1,266c0.2,0,0.3,0,0.4,0c0.1,0,0.3,0.1,0.4,0.2
										c0.1,0.1,0.2,0.4,0,0.6c-0.1,0.2-0.3,0.4-0.6,0.4c-0.3,0.1-0.5,0.1-0.8,0c-0.6,0-1.2-0.1-1.9-0.1c-0.2,0-0.3,0-0.5-0.1
										c-0.2-0.1-0.3-0.2-0.4-0.4c-0.1-0.2,0-0.4,0.1-0.5c0.1-0.1,0.2-0.2,0.4-0.3c0.3-0.1,0.6-0.1,0.8-0.1c0.3,0,0.5,0,0.7,0
										c0.4,0,0.8,0,1,0C146.1,266,146.2,266,146.1,266C146.2,266,146.2,266,146.1,266c-0.1,0-0.2,0-0.3,0c-0.2,0-0.6,0-1,0
										c-0.2,0-0.5,0-0.7,0c-0.3,0-0.5,0-0.8,0.1c-0.1,0-0.2,0.1-0.3,0.2c-0.1,0.1-0.1,0.3-0.1,0.4c0,0.1,0.2,0.2,0.3,0.3
										c0.1,0.1,0.3,0.1,0.5,0.1c0.7,0,1.3,0.1,1.9,0.1c0.3,0,0.6,0,0.8,0c0.2-0.1,0.4-0.2,0.5-0.4c0.1-0.2,0.1-0.4,0-0.5
										c-0.1-0.1-0.2-0.2-0.3-0.2C146.2,266,146.1,266,146.1,266z"/>
								</g>
							</g>
						</g>
					</g>
				</g>
				<g>
					<g>
						<g>
							<g>
								<g>
									<path class="st8" d="M171.2,265.8C171.2,265.8,171.2,265.8,171.2,265.8c0.2,0,0.3,0,0.4,0c0.1,0,0.3,0.1,0.4,0.2
										c0.1,0.1,0.2,0.4,0,0.6c-0.1,0.2-0.3,0.4-0.6,0.4c-0.3,0.1-0.5,0.1-0.8,0c-0.6,0-1.2-0.1-1.9-0.1c-0.2,0-0.3,0-0.5-0.1
										c-0.2-0.1-0.3-0.2-0.4-0.4c-0.1-0.2,0-0.4,0.1-0.5c0.1-0.1,0.2-0.2,0.4-0.3c0.3-0.1,0.6-0.1,0.8-0.1c0.3,0,0.5,0,0.7,0
										c0.4,0,0.8,0,1,0C171.2,265.8,171.3,265.8,171.2,265.8C171.3,265.8,171.3,265.8,171.2,265.8c-0.1,0-0.2,0-0.3,0
										c-0.2,0-0.6,0-1,0c-0.2,0-0.5,0-0.7,0c-0.3,0-0.5,0-0.8,0.1c-0.1,0-0.2,0.1-0.3,0.2c-0.1,0.1-0.1,0.3-0.1,0.4
										c0,0.1,0.2,0.2,0.3,0.3c0.1,0.1,0.3,0.1,0.5,0.1c0.7,0,1.3,0.1,1.9,0.1c0.3,0,0.6,0,0.8,0c0.2-0.1,0.4-0.2,0.5-0.4
										c0.1-0.2,0.1-0.4,0-0.5c-0.1-0.1-0.2-0.2-0.3-0.2C171.3,265.8,171.2,265.8,171.2,265.8z"/>
								</g>
							</g>
						</g>
					</g>
				</g>
				<g>
					<g>
						<g>
							<path class="st8" d="M175,262.1c0,0,0,0,0,0.1s0,0.2-0.1,0.3c-0.1,0.3-0.2,0.6-0.3,1.1c-0.3,1-0.7,2.5-1.2,4.3l0,0l0,0
								c-0.8,0.4-1.7,0.9-2.4,1.6c-0.4,0.4-0.8,0.8-1.1,1.2c-0.4,0.4-0.7,0.9-1,1.5c-0.6,1.1-1.1,2.3-1.4,3.6
								c-0.3,1.3-0.5,2.8-0.5,4.2v0h0c-5.3,0-11.3,0-17.8,0c-8.6,0-16.6,0-23,0h0l0,0c-0.6-4.7-0.9-8.6-1.2-11.3
								c-0.1-1.3-0.2-2.4-0.2-3.1c0-0.4,0-0.6-0.1-0.8c0-0.2,0-0.3,0-0.3s0,0.1,0,0.3s0,0.5,0.1,0.8c0.1,0.7,0.1,1.8,0.3,3.1
								c0.2,2.7,0.6,6.6,1.2,11.3l0,0c6.3,0,14.3,0,23,0c6.5,0,12.5,0,17.8,0l0,0c0-1.5,0.2-2.9,0.6-4.3c0.3-1.3,0.8-2.6,1.4-3.6
								c0.3-0.5,0.6-1,1-1.5c0.4-0.4,0.7-0.9,1.1-1.2c0.8-0.7,1.6-1.3,2.5-1.6l0,0c0.5-1.9,1-3.3,1.2-4.3c0.1-0.5,0.3-0.9,0.3-1.1
								C174.9,262.3,174.9,262.3,175,262.1C175,262.1,175,262.1,175,262.1z"/>
						</g>
					</g>
				</g>
				<g>
					<g>
						<g>
							<path class="st8" d="M149.4,263C149.4,263,149.4,263,149.4,263c0,0.1,0,0.1,0,0.2c0,0.1,0,0.3-0.1,0.5c0,0.2-0.1,0.5-0.1,0.8
								c0,0.3-0.1,0.7-0.1,1c0,0.4-0.1,0.8-0.1,1.3c0,0.5-0.1,0.9-0.1,1.5c0,1,0,2.2,0,3.3c0,1.2,0.1,2.3,0.2,3.3
								c0.1,0.5,0.1,1,0.2,1.4c0.1,0.5,0.1,0.9,0.2,1.3c0.1,0.4,0.1,0.7,0.2,1c0.1,0.3,0.1,0.6,0.1,0.8c0,0.2,0.1,0.4,0.1,0.5
								c0,0.1,0,0.1,0,0.1c0,0,0,0,0,0c0,0,0,0,0,0c0,0,0-0.1,0-0.1c0-0.1-0.1-0.3-0.1-0.5c0-0.2-0.1-0.5-0.2-0.8
								c-0.1-0.3-0.1-0.6-0.2-1c-0.1-0.4-0.1-0.8-0.2-1.3c-0.1-0.5-0.1-0.9-0.2-1.5c-0.1-1-0.2-2.2-0.2-3.3c0-1.2,0-2.3,0-3.4
								c0-0.5,0-1,0.1-1.5c0-0.5,0.1-0.9,0.1-1.3c0-0.4,0.1-0.7,0.1-1c0-0.3,0.1-0.6,0.1-0.8c0-0.2,0.1-0.4,0.1-0.5
								C149.4,263.1,149.4,263.1,149.4,263C149.4,263,149.4,263,149.4,263z"/>
						</g>
					</g>
				</g>
				<g>
					<g>
						<path class="st8" d="M124.7,262.5c-0.6,0.4-1.4,0.5-2.1,0.4c-0.7-0.1-1.2-0.5-1.6-1.1l1.6-0.1L124.7,262.5z"/>
					</g>
				</g>
				<g>
					<g>
						<path class="st25" d="M122.5,261.7c0,0,1.6,1,2,0.8c0.5-0.1,7.8-5.9,12.2-8.2c0,0-0.6-0.2-1.3-0.3c0,0-2.1,1-4.6,2.6
							c-2,1.2-3.9,2.4-4.9,3C123.9,260.9,122.5,261.7,122.5,261.7z"/>
					</g>
				</g>
				<g>
					<g>
						<g>
							<path class="st8" d="M127.6,262.9C127.6,263,127.6,263,127.6,262.9c-0.1,0.1-0.1,0.1-0.2,0.1c-0.1,0.1-0.3,0.2-0.6,0.3
								c-0.5,0.3-1.3,0.7-2.3,1.3l0,0l0,0c-1.4-0.1-3.3-0.1-5.4,0c-1,0-2.2,0.1-3.3,0.2c-1.2,0.1-2.4,0.3-3.6,0.5
								c-2.2,0.3-4.2,0.8-6.1,1.1c-1.9,0.3-3.6,0.5-5,0.6c-1.4,0.1-2.6,0.1-3.4,0c-0.4,0-0.7,0-0.9,0c-0.1,0-0.2,0-0.2,0
								c-0.1,0-0.1,0-0.1,0s0,0,0.1,0c0.1,0,0.1,0,0.2,0c0.2,0,0.5,0,0.9,0c0.8,0,2,0,3.4-0.1c1.4-0.1,3.1-0.3,5-0.6
								c1.9-0.3,3.9-0.8,6.1-1.1c1.2-0.2,2.4-0.4,3.6-0.5c1.2-0.1,2.3-0.2,3.3-0.2c2.1-0.1,3.9,0,5.4,0l0,0c1-0.5,1.8-1,2.3-1.3
								c0.3-0.1,0.5-0.3,0.6-0.3C127.4,263,127.5,263,127.6,262.9C127.6,263,127.6,262.9,127.6,262.9z"/>
						</g>
					</g>
				</g>
				<g>
					<g>
						<path class="st25" d="M129.3,263.1c11.2-0.5,33.7-0.9,44.8-1.4c0,0,0.4-1.2-0.7-2c-0.4-0.3-2.7-2-5.4-3.1
							c-4.2-1.6-8.6-2.3-10.3-2.4c-2-0.2-5.6-0.3-5.6-0.3s-6.7,0.3-8.5,0.4c-2.7,0.2-5,1-6.7,1.8c-2.3,1.2-6.4,4.5-6.4,4.5l-2.8,2.4
							L129.3,263.1L129.3,263.1z"/>
					</g>
				</g>
				<g>
					<g>
						<polygon class="st8" points="149.8,253.6 147.6,262.8 151.5,262.7 152.3,253.6 						"/>
					</g>
				</g>
				<g>
					<g>
						<polygon class="st8" points="166.7,255.8 166.3,262.1 166.8,262.1 167.2,256 						"/>
					</g>
				</g>
				<g>
					<g>
						<path class="st8" d="M129.7,261c0.2,0.2,1.2,2.5,1.2,2.5l-3.8-0.2L129.7,261z"/>
					</g>
				</g>
				<g>
					<g>
						<g>
							<g>
								<g>
									<path class="st26" d="M133.2,263.3l-2.9,0.1c-0.4,0-0.7-0.7-0.7-1.5l0,0c0-0.7,0.3-1.4,0.6-1.5l2.7-0.9L133.2,263.3z"/>
								</g>
							</g>
						</g>
					</g>
				</g>
				<g>
					<g>
						<g>
							
								<ellipse transform="matrix(0.1531 -0.9882 0.9882 0.1531 -127.9035 367.2005)" class="st25" cx="150.3" cy="258.2" rx="4.7" ry="0"/>
						</g>
					</g>
				</g>
				<g>
					<g>
						<g>
							<path class="st25" d="M129.8,260.9c0,0-0.1,0.5-0.4,0.9s-0.6,0.8-0.6,0.8c0,0,0.3-0.4,0.6-0.9
								C129.6,261.3,129.8,260.9,129.8,260.9z"/>
						</g>
					</g>
				</g>
				<g>
					<g>
						<g>
							<path class="st27" d="M145.7,255.3C145.7,255.3,145.7,255.3,145.7,255.3c-0.1,0.1-0.1,0.2-0.2,0.3c-0.1,0.2-0.3,0.4-0.5,0.8
								c-0.4,0.6-1,1.5-1.7,2.5c-0.6,1-1.2,1.9-1.6,2.5c-0.2,0.3-0.4,0.6-0.5,0.8c-0.1,0.1-0.1,0.2-0.1,0.2c0,0-0.1,0.1-0.1,0.1
								c0,0,0,0,0-0.1c0-0.1,0.1-0.1,0.1-0.2c0.1-0.2,0.3-0.5,0.5-0.8c0.4-0.7,1-1.6,1.6-2.5c0.6-1,1.2-1.9,1.7-2.5
								c0.2-0.3,0.4-0.6,0.5-0.7C145.6,255.5,145.6,255.4,145.7,255.3C145.7,255.3,145.7,255.3,145.7,255.3z"/>
						</g>
					</g>
				</g>
				<g>
					<g>
						<g>
							
								<ellipse transform="matrix(0.5806 -0.8142 0.8142 0.5806 -149.9966 224.7576)" class="st27" cx="143.2" cy="258" rx="1.6" ry="0"/>
						</g>
					</g>
				</g>
				<g>
					<g>
						<g>
							<g>
								<path class="st28" d="M200.7,268.1c0,0-0.9,0.1-1.6-0.2c-1.1-0.5-1.6-1.8-1.1-2.9c0,0,0,0,0,0c0.3-0.7,1-1.1,1.8-1.1h0.4
									c0,0,0.2,0.3,0.3,0.9C200.5,265.6,200.7,266.8,200.7,268.1z"/>
							</g>
						</g>
					</g>
				</g>
			</g>
			<g>
				<g>
					<g>
						
							<ellipse transform="matrix(0.5364 -0.8439 0.8439 0.5364 -145.1461 253.0346)" class="st27" cx="157.8" cy="258.6" rx="3.6" ry="0"/>
					</g>
				</g>
			</g>
			<g>
				<g>
					<g>
						
							<ellipse transform="matrix(0.5421 -0.8403 0.8403 0.5421 -144.4359 251.7194)" class="st27" cx="158.8" cy="258.4" rx="1.2" ry="0"/>
					</g>
				</g>
			</g>
		</g>
		<g>
			<g>
				<g>
					<path class="st27" d="M132.5,260c0,0-0.5,0.2-1.1,0.4c-0.6,0.2-1.1,0.3-1.1,0.2c0,0,0.5-0.1,1.1-0.3
						C132.1,260.2,132.5,260,132.5,260z"/>
				</g>
			</g>
		</g>
		<g>
			<g>
				<g>
					<ellipse class="st27" cx="137.5" cy="263.9" rx="10.5" ry="0"/>
				</g>
			</g>
		</g>
		<g>
			<g>
				<g>
					<ellipse class="st27" cx="144.9" cy="265.8" rx="1.5" ry="0"/>
				</g>
			</g>
		</g>
		<g>
			<g>
				<g>
					<path class="st27" d="M112.5,267.9c0,0,0,0-0.1,0c-0.1,0-0.2,0-0.3,0c-0.3,0-0.7,0-1.2,0.1c-1,0.1-2.4,0.5-3.8,1.3
						c-1.3,0.8-2.3,1.9-2.9,2.8c-0.3,0.4-0.5,0.8-0.6,1c-0.1,0.1-0.1,0.2-0.1,0.3c0,0.1-0.1,0.1-0.1,0.1c0,0,0,0,0-0.1
						c0-0.1,0.1-0.2,0.1-0.3c0.1-0.3,0.3-0.6,0.6-1.1c0.6-0.9,1.5-2,2.9-2.8c1.4-0.8,2.8-1.2,3.8-1.3c0.5-0.1,0.9-0.1,1.2,0
						c0.1,0,0.3,0,0.3,0C112.4,267.9,112.5,267.9,112.5,267.9z"/>
				</g>
			</g>
		</g>
		<g>
			<g>
				<g>
					<ellipse class="st27" cx="159" cy="263.4" rx="6.9" ry="0"/>
				</g>
			</g>
		</g>
		<g>
			<g>
				<g>
					<path class="st27" d="M172,265.5c0,0-0.2,0-0.5,0c-0.3,0-0.7,0-1.2,0c-0.5,0-0.9,0-1.2,0c-0.3,0-0.5,0-0.5,0c0,0,0.2,0,0.5-0.1
						c0.3,0,0.7,0,1.2,0c0.5,0,0.9,0,1.2,0C171.8,265.5,172,265.5,172,265.5z"/>
				</g>
			</g>
		</g>
	</g>
</g>
</svg>
