
<svg id="Layer_1" enable-background="new 0 0 509.217 509.217" height="512" viewBox="0 0 509.217 509.217" width="512" xmlns="http://www.w3.org/2000/svg"><g><ellipse fill="#00a6eb" cx="146.002" cy="41.912" rx="41.912" ry="41.912" transform="matrix(.383 -.924 .924 .383 51.408 160.761)"/><ellipse fill="#00a6eb" cx="338.819" cy="60.214" rx="40.266" ry="40.266" transform="matrix(.987 -.16 .16 .987 -5.27 55.05)"/><path fill="#00a6eb" d="m417.399 152.844c-9.014-26.23-24.129-39.53-44.922-39.53-20.314 0-46.665 0-67.316 0-20.794 0-35.908 13.3-44.922 39.53-3.092 8.996-7.053 20.253-11.351 32.337v-40.281c0-.034 0-.068 0-.101-.131-26.256-21.934-47.616-48.602-47.616-22.152 0-86.307 0-108.565 0-26.711 0-48.55 21.36-48.681 47.616v.101 148.568c0 11.169 9.054 20.223 20.223 20.223s20.223-9.054 20.223-20.223v-148.494c.038-3.848 4.356-7.346 8.637-7.346v347.322c0 13.402 10.974 24.267 24.377 24.267s24.267-10.865 24.267-24.267v-193.969h10.478v193.969c0 13.402 10.865 24.267 24.267 24.267s24.371-10.865 24.371-24.267c0-.154 0-347.215 0-347.322 4.237 0 8.521 3.494 8.564 7.339v148.501c0 11.169 9.054 20.223 20.223 20.223 9.038 0 16.686-5.931 19.278-14.111 1.145-1.508 35.946-96.858 35.946-96.858l-22.451 129.554c-1.144 6.601 3.959 12.649 10.634 12.649h15.086v140.931c0 12.876 10.438 23.314 23.314 23.314s23.314-10.438 23.314-23.314v-140.93h10.066v140.931c0 12.876 10.438 23.314 23.314 23.314s23.314-10.438 23.314-23.314v-140.931h15.085c6.683 0 11.782-6.027 10.634-12.649l-22.452-129.559c14.926 41.872 32.929 91.13 33.17 91.788 3.69 10.092 14.855 15.255 24.919 11.575 10.078-3.684 15.26-14.841 11.575-24.919-.324-.872-32.046-87.663-46.017-128.318z"/></g></svg>