<?xml version="1.0" encoding="utf-8"?>
<!-- Generator: Adobe Illustrator 24.1.0, SVG Export Plug-In . SVG Version: 6.00 Build 0)  -->
<svg version="1.1" id="Layer_1" xmlns="http://www.w3.org/2000/svg" xmlns:xlink="http://www.w3.org/1999/xlink" x="0px" y="0px"
	 viewBox="0 0 713.3 527.2" style="enable-background:new 0 0 713.3 527.2;" xml:space="preserve">
<style type="text/css">
	.st0{fill:#E0E0E0;}
	.st1{fill:#F5F5F5;}
	.st2{fill:#EBEBEB;}
	.st3{fill:#375A64;}
	.st4{fill:#FFFFFF;}
	.st5{fill:#FAFAFA;}
	.st6{display:none;}
	.st7{display:inline;fill:#EBEBEB;}
	.st8{opacity:0.5;}
	.st9{fill:#263238;}
	.st10{fill:#1A2E35;}
	.st11{fill:#455A64;}
	.st12{fill:#367DF5;}
	.st13{font-family:'Montserrat-Bold';}
	.st14{font-size:19.6747px;}
	.st15{font-size:8.0027px;}
	.st16{fill:#00A7ED;}
	.st17{display:inline;}
	.st18{fill:#C67761;}
	.st19{fill:#9B4E3D;}
	.st20{fill:#E8505B;}
</style>
<g id="Background_Complete">
	<g>
		<g>
			<g>
				<rect x="41" y="284.9" class="st0" width="120.2" height="227.2"/>
			</g>
			<g>
				<rect x="5.3" y="284.9" class="st1" width="120.2" height="227.2"/>
			</g>
			<g>
				<g>
					<path class="st0" d="M116.7,331.7H13.5v-36h103.2V331.7L116.7,331.7z M14.8,330.4h100.7v-33.5H14.8V330.4z"/>
				</g>
				<g>
					<path class="st2" d="M79.1,303.5H52.5c-3.5,0-6.3-2.8-6.3-6.3v-0.9h39.2v0.9C85.4,300.7,82.6,303.5,79.1,303.5z"/>
				</g>
			</g>
			<g>
				<g>
					<path class="st0" d="M116.7,377.4H13.5v-36h103.2V377.4L116.7,377.4z M14.8,376.2h100.7v-33.5H14.8V376.2z"/>
				</g>
				<g>
					<path class="st2" d="M79.1,349.2H52.5c-3.5,0-6.3-2.8-6.3-6.3V342h39.2v0.9C85.4,346.4,82.6,349.2,79.1,349.2z"/>
				</g>
			</g>
			<g>
				<g>
					<path class="st0" d="M116.7,423.2H13.5v-36h103.2V423.2L116.7,423.2z M14.8,421.9h100.7v-33.5H14.8V421.9z"/>
				</g>
				<g>
					<path class="st2" d="M79.1,395H52.5c-3.5,0-6.3-2.8-6.3-6.3v-0.9h39.2v0.9C85.4,392.2,82.6,395,79.1,395z"/>
				</g>
			</g>
			<g>
				<g>
					<path class="st0" d="M116.7,468.9H13.5v-36h103.2V468.9L116.7,468.9z M14.8,467.7h100.7v-33.5H14.8V467.7z"/>
				</g>
				<g>
					<path class="st2" d="M79.1,440.7H52.5c-3.5,0-6.3-2.8-6.3-6.3v-0.9h39.2v0.9C85.4,437.9,82.6,440.7,79.1,440.7z"/>
				</g>
			</g>
			<g>
				<rect y="276.4" class="st2" width="130.6" height="11.3"/>
			</g>
			<g>
				<rect x="130.6" y="276.4" class="st0" width="39.3" height="11.3"/>
			</g>
			<g>
				<rect x="5.3" y="512.1" class="st0" width="6.3" height="11.6"/>
			</g>
			<g>
				<rect x="44.4" y="512.1" class="st0" width="6.3" height="11.6"/>
			</g>
			<g>
				<rect x="115.7" y="512.1" class="st0" width="6.3" height="11.6"/>
			</g>
			<g>
				<rect x="151.3" y="512.1" class="st0" width="6.3" height="11.6"/>
			</g>
		</g>
		<g>
			<g>
				<g>
					<g>
						<path class="st2" d="M658,244.9c-6,0.1-9.7,7-10,13s1.3,12.2-0.1,18c-1.9,7.4-8.5,13-10.2,20.5c-2,8.8,3.2,17.6,3.9,26.6
							c0.3,4.4-0.4,8.9,0.6,13.1c1.7,7.2,8.9,12.7,16.3,12.4c7.4-0.3,14.2-6.3,15.3-13.6c1.1-6.8-2.2-13.9-0.8-20.6
							c1.1-5,4.7-9.4,4.8-14.5c0.1-6.1-4.9-11.1-6-17c-1.2-6,1.6-12,1.7-18.1C673.8,253.8,668.9,245.5,658,244.9"/>
					</g>
					<g>
						<g>
							<path class="st3" d="M661,273.4c0,0,0,0.3,0,1s-0.1,1.6-0.2,2.8c-0.2,2.5-0.4,5.9-0.8,10.2c-0.6,8.6-1.5,20.4-2.4,33.5
								s-1.6,25-2.1,33.6c-0.3,4.3-0.5,7.7-0.6,10.2c-0.1,1.2-0.1,2.1-0.2,2.8c-0.1,0.6-0.1,1-0.1,1s0-0.3,0-1s0.1-1.6,0.1-2.8
								c0.1-2.5,0.3-5.9,0.4-10.2c0.4-8.6,1.1-20.5,2-33.6s1.8-25,2.6-33.5c0.4-4.2,0.7-7.7,0.9-10.2c0.1-1.2,0.2-2.1,0.3-2.8
								C660.9,273.7,661,273.3,661,273.4z"/>
						</g>
					</g>
				</g>
			</g>
			<g>
				<g>
					<path class="st3" d="M656.8,390.7L656.8,390.7c10.6,0,19.2-8.6,19.2-19.2v-19.2h-38.5v19.2
						C637.5,382.1,646.1,390.7,656.8,390.7z"/>
				</g>
				<g>
					<g>
						<path class="st4" d="M637.5,361.7c0,0,0.2,0.1,0.6,0.4c0.5,0.4,1,0.8,1.7,1.3c1.5,1.2,3.6,2.9,5.9,4.8h-0.3
							c3.2-2,7-4.3,11.1-6.8l0,0l0.2-0.1l0.2,0.1c3.8,2.5,7.3,4.8,10.3,6.8h-0.3c2.6-1.9,4.8-3.6,6.5-4.8c0.7-0.5,1.3-1,1.8-1.3
							c0.4-0.3,0.7-0.4,0.7-0.4s-0.2,0.2-0.6,0.6c-0.5,0.4-1.1,0.9-1.8,1.4c-1.6,1.3-3.8,3-6.4,5l-0.2,0.1l-0.2-0.1
							c-3-2-6.6-4.3-10.4-6.7h0.4l0,0c-4.1,2.5-7.9,4.8-11.1,6.7l-0.2,0.1l-0.1-0.1c-2.3-2-4.3-3.7-5.8-5c-0.6-0.6-1.2-1-1.6-1.4
							C637.7,361.9,637.5,361.7,637.5,361.7z"/>
					</g>
				</g>
				<g>
					<g>
						<path class="st4" d="M637.5,357.8c0,0,0.2,0.1,0.6,0.4c0.5,0.4,1,0.8,1.7,1.3c1.5,1.2,3.6,2.9,5.9,4.8h-0.3
							c3.2-2,7-4.3,11.1-6.8l0,0l0.2-0.1l0.2,0.1c3.8,2.5,7.3,4.8,10.3,6.8h-0.3c2.6-1.9,4.8-3.6,6.5-4.8c0.7-0.5,1.3-1,1.8-1.3
							c0.4-0.3,0.7-0.4,0.7-0.4s-0.2,0.2-0.6,0.6c-0.5,0.4-1.1,0.9-1.8,1.4c-1.6,1.3-3.8,3-6.4,5l-0.2,0.1l-0.2-0.1
							c-3-2-6.6-4.3-10.4-6.7h0.4l0,0c-4.1,2.5-7.9,4.8-11.1,6.7l-0.2,0.1l-0.1-0.1c-2.3-2-4.3-3.7-5.8-5c-0.6-0.6-1.2-1-1.6-1.4
							C637.7,358,637.5,357.8,637.5,357.8z"/>
					</g>
				</g>
				<g>
					<g>
						<path class="st4" d="M637.5,365.6c0,0,0.2,0.1,0.6,0.4c0.5,0.4,1,0.8,1.7,1.3c1.5,1.2,3.6,2.9,5.9,4.8h-0.3
							c3.2-2,7-4.3,11.1-6.8l0,0l0.2-0.1l0.2,0.1c3.8,2.5,7.3,4.8,10.3,6.8h-0.3c2.6-1.9,4.8-3.6,6.5-4.8c0.7-0.5,1.3-1,1.8-1.3
							c0.4-0.3,0.7-0.4,0.7-0.4s-0.2,0.2-0.6,0.6c-0.5,0.4-1.1,0.9-1.8,1.4c-1.6,1.3-3.8,3-6.4,5l-0.2,0.1l-0.2-0.1
							c-3-2-6.6-4.3-10.4-6.7h0.4l0,0c-4.1,2.5-7.9,4.8-11.1,6.7l-0.2,0.1l-0.1-0.1c-2.3-2-4.3-3.7-5.8-5c-0.6-0.6-1.2-1-1.6-1.4
							C637.7,365.8,637.5,365.6,637.5,365.6z"/>
					</g>
				</g>
			</g>
		</g>
		<g>
			<g>
				<polygon class="st2" points="684.1,487.8 696.4,523 690.2,523 668.7,487.8 				"/>
			</g>
			<g>
				<polygon class="st2" points="613.6,487.8 601.4,523 607.5,523 629,487.8 				"/>
			</g>
			<g>
				<rect x="584.4" y="390.6" class="st2" width="98.1" height="98.1"/>
			</g>
			<g>
				<rect x="615.2" y="390.6" class="st1" width="98.1" height="98.1"/>
			</g>
			<g>
				<path class="st0" d="M706.8,482.7h-85.2v-85.2h85.2V482.7L706.8,482.7z M622.9,481.4h82.6v-82.6h-82.6V481.4z"/>
			</g>
			<g>
				<g>
					<path class="st0" d="M705.7,423.9c-27.7-0.8-55.7-0.6-83.4,0c-0.4,0-0.4,0.7,0,0.7c27.7,0.6,55.7,0.8,83.4,0
						C706.1,424.5,706.1,424,705.7,423.9L705.7,423.9z"/>
				</g>
			</g>
			<g>
				<circle class="st2" cx="664.2" cy="411.9" r="2.4"/>
			</g>
			<g>
				<circle class="st2" cx="698.6" cy="450.2" r="2.4"/>
			</g>
		</g>
		<g>
			<polygon class="st0" points="77.6,245.9 89.8,277 82.2,277 76.1,257.8 			"/>
			<g>
				<g>
					<polygon class="st2" points="36,217.1 31.9,276.8 75,277.7 79.9,217.1 					"/>
					<polygon class="st5" points="40.4,221.9 36.9,271.6 69,273.1 73.5,221.6 					"/>
				</g>
				<polygon class="st0" points="47.4,228.9 44.8,263.8 62.5,263.8 65.6,228.9 				"/>
			</g>
		</g>
		<g>
			<rect x="508.1" y="47" class="st0" width="139.4" height="136.9"/>
			<rect x="513" y="50.8" class="st5" width="129.6" height="129.6"/>
			<rect x="556.6" y="94.4" class="st0" width="42.3" height="42.3"/>
		</g>
	</g>
</g>
<g id="Background_Simple" class="st6">
	<path class="st7" d="M700,313.3c14.1,64.3-13.4,134-62.6,177.7s-117.5,62.7-183.3,59.2c-46.9-2.5-94.5-16.6-130.2-47.2
		s-57.4-79.5-48.2-125.6c3.5-17.4,11.8-34.7,26.5-44.6c23.5-15.8,55-8.5,82.2-0.7c27.2,7.9,58.6,15.2,82.2-0.5
		c18.1-12.1,26-34.3,38.5-52.1c21.2-30.3,58.5-48.8,95.5-47.2c5.1,0.2,10.3,0.8,15.3,1.8c39.2,7.5,70.8,36.7,82.6,74.8L700,313.3z"
		/>
</g>
<g id="Floor">
</g>
<g id="Credit_Card">
	<g>
		<g>
			<g>
				<g>
					<g>
						<path class="st3" d="M618.9,360.7l-185.8-13.5c-5.3-0.4-9.2-5-8.8-10.2l8.3-114.2c0.4-5.3,5-9.2,10.2-8.8l185.8,13.5
							c5.3,0.4,9.2,5,8.8,10.2l-8.3,114.2C628.7,357.1,624.2,361.1,618.9,360.7z"/>
					</g>
					<g>
						<circle class="st4" cx="591.5" cy="255.9" r="14.2"/>
					</g>
					<g>
						<path class="st4" d="M608.6,272c-0.4,0-0.7,0-1.1,0c-8.1-0.6-14.3-7.7-13.7-15.9c0.6-8.1,7.7-14.3,15.8-13.7
							s14.3,7.7,13.7,15.8l0,0C622.8,266,616.3,272,608.6,272z M608.6,243.6c-7,0-13,5.4-13.5,12.6c-0.5,7.4,5.1,14,12.5,14.5
							c7.4,0.6,14-5.1,14.5-12.5l0,0c0.5-7.4-5.1-13.9-12.5-14.5C609.2,243.6,608.9,243.6,608.6,243.6z"/>
					</g>
					<g>
						<path class="st4" d="M445.2,299.8l-0.8,11.4l-1.2-0.1l0.8-10.3l-2.7-0.2l0.1-1L445.2,299.8z"/>
						<path class="st4" d="M456.2,310.9l-0.1,1l-8-0.6l0.1-0.8l5.1-4.3c1.4-1.2,1.7-1.9,1.7-2.7c0.1-1.3-0.8-2.2-2.5-2.3
							c-1.3-0.1-2.4,0.2-3.2,1l-0.8-0.8c1-1,2.4-1.5,4.1-1.3c2.3,0.2,3.7,1.4,3.5,3.3c-0.1,1.1-0.5,2-2.1,3.4l-4.1,3.5L456.2,310.9z
							"/>
						<path class="st4" d="M468.3,309.9l-2.3-0.2l-0.2,3l-1.2-0.1l0.2-3l-6.4-0.5l0.1-0.8l6.6-7.1l1.3,0.1l-6.3,6.9l4.9,0.4l0.2-2.6
							l1.1,0.1l-0.2,2.6l2.3,0.2L468.3,309.9z"/>
						<path class="st4" d="M485.7,311.1l-2.3-0.2l-0.2,3l-1.2-0.1l0.2-3l-6.4-0.5l0.1-0.8l6.6-7.1l1.3,0.1l-6.3,6.9l4.9,0.4l0.2-2.6
							l1.1,0.1l-0.2,2.6l2.3,0.2L485.7,311.1z"/>
						<path class="st4" d="M495.7,311.5c-0.1,1.9-1.6,3.3-4.4,3.1c-1.6-0.1-3.2-0.8-4-1.8l0.6-0.9c0.7,0.8,1.9,1.5,3.4,1.6
							c1.9,0.1,3-0.7,3.1-2.1c0.1-1.5-0.7-2.4-3.6-2.6l-2.4-0.2l1-5.7l6.2,0.5l-0.1,1l-5.2-0.4l-0.7,3.6l1.5,0.1
							C494.6,308.1,495.8,309.5,495.7,311.5z"/>
						<path class="st4" d="M506.9,312.3c-0.2,2.1-1.9,3.4-4.1,3.2c-3-0.2-4.5-2.4-4.2-6c0.3-3.9,2.5-5.7,5.6-5.5
							c1,0.1,2,0.3,2.7,0.8l-0.5,0.9c-0.6-0.4-1.3-0.6-2.2-0.7c-2.5-0.2-4.1,1.3-4.4,4.4c0,0.3,0,0.6,0,0.9c0.7-1.2,2-1.8,3.6-1.7
							C505.6,308.8,507.1,310.2,506.9,312.3z M505.8,312.2c0.1-1.5-0.9-2.5-2.7-2.7c-1.7-0.1-3,0.9-3.1,2.3
							c-0.1,1.2,0.9,2.5,2.8,2.7C504.5,314.6,505.7,313.7,505.8,312.2z"/>
						<path class="st4" d="M522.5,313.5c-0.1,1.9-1.6,3.3-4.4,3.1c-1.6-0.1-3.2-0.8-4-1.8l0.6-0.9c0.7,0.8,2,1.5,3.4,1.6
							c1.9,0.1,3-0.7,3.1-2.1s-0.8-2.3-2.9-2.5l-0.8-0.1l0.1-0.9l3.4-3.7l-5.8-0.4l0.1-1l7.3,0.5l-0.1,0.8l-3.5,3.8
							C521.5,310.3,522.6,311.7,522.5,313.5z"/>
						<path class="st4" d="M533.9,314.2c-0.2,2.1-1.9,3.4-4.1,3.2c-3-0.2-4.5-2.4-4.2-6c0.3-3.9,2.5-5.7,5.6-5.5
							c1,0.1,2,0.3,2.7,0.8l-0.5,0.9c-0.6-0.4-1.3-0.6-2.2-0.7c-2.5-0.2-4.1,1.3-4.4,4.4c0,0.3,0,0.6,0,0.9c0.7-1.2,2-1.8,3.6-1.7
							C532.6,310.7,534.1,312.2,533.9,314.2z M532.7,314.2c0.1-1.5-0.9-2.5-2.7-2.7c-1.7-0.1-3,0.9-3.1,2.3
							c-0.1,1.3,0.9,2.5,2.8,2.7C531.4,316.6,532.6,315.7,532.7,314.2z"/>
						<path class="st4" d="M544.9,307l-0.1,0.8l-5.5,10.2l-1.3-0.1l5.4-10l-5.8-0.4l-0.2,2.1l-1.2-0.1l0.2-3.2L544.9,307z"/>
						<path class="st4" d="M561.2,308.2l-0.1,0.8l-5.5,10.2l-1.3-0.1l5.4-10l-5.8-0.4l-0.2,2.1l-1.2-0.1l0.2-3.2L561.2,308.2z"/>
						<path class="st4" d="M571.8,317.2c-0.1,2-1.9,3.1-4.7,2.9c-2.7-0.2-4.3-1.6-4.1-3.6c0.1-1.4,0.9-2.3,2.4-2.6
							c-1.1-0.5-1.7-1.4-1.6-2.6c0.1-1.9,1.8-2.9,4.2-2.7c2.4,0.2,3.9,1.4,3.8,3.3c-0.1,1.2-0.8,2-2,2.4
							C571.2,314.8,571.9,315.9,571.8,317.2z M570.6,317.1c0.1-1.4-1-2.4-3.1-2.5s-3.3,0.6-3.4,2c-0.1,1.4,1,2.4,3,2.5
							C569.2,319.3,570.5,318.5,570.6,317.1z M567.6,313.7c1.8,0.1,2.9-0.6,3-1.8c0.1-1.3-1-2.1-2.7-2.3c-1.7-0.1-2.9,0.6-3,1.8
							C564.9,312.7,565.8,313.6,567.6,313.7z"/>
						<path class="st4" d="M583,315.4c-0.3,3.9-2.5,5.7-5.6,5.5c-1-0.1-2-0.3-2.7-0.8l0.5-0.9c0.6,0.4,1.3,0.6,2.2,0.7
							c2.5,0.2,4.1-1.3,4.4-4.4c0-0.3,0-0.6,0-0.9c-0.7,1.2-2,1.8-3.6,1.7c-2.3-0.2-3.7-1.6-3.6-3.7c0.2-2.1,1.9-3.4,4.1-3.2
							C581.8,309.6,583.3,311.8,583,315.4z M581.6,313c0.1-1.2-0.9-2.5-2.8-2.7c-1.6-0.1-2.8,0.8-3,2.3c-0.1,1.5,0.9,2.5,2.7,2.7
							C580.2,315.4,581.5,314.5,581.6,313z"/>
						<path class="st4" d="M595,310.7l-0.8,11.4L593,322l0.8-10.3l-2.7-0.2l0.1-1L595,310.7z"/>
						<path class="st4" d="M605.9,321.9l-0.1,1l-8-0.6l0.1-0.8l5.1-4.3c1.4-1.2,1.7-1.9,1.7-2.7c0.1-1.3-0.8-2.2-2.5-2.3
							c-1.3-0.1-2.4,0.2-3.2,1l-0.8-0.8c1-1,2.4-1.5,4.1-1.3c2.3,0.2,3.7,1.4,3.5,3.3c-0.1,1.1-0.5,2-2.1,3.4l-4.1,3.5L605.9,321.9z
							"/>
						<path class="st4" d="M616.3,320.4c-0.1,1.9-1.6,3.3-4.4,3.1c-1.6-0.1-3.2-0.8-4-1.8l0.6-0.9c0.7,0.8,2,1.5,3.4,1.6
							c1.9,0.1,3-0.7,3.1-2.1s-0.8-2.3-2.9-2.5l-0.8-0.1l0.1-0.9l3.4-3.7l-5.8-0.4l0.1-1l7.3,0.5l-0.1,0.8l-3.5,3.8
							C615.3,317.2,616.4,318.6,616.3,320.4z"/>
					</g>
					<g>
						
							<rect x="570.9" y="285.7" transform="matrix(7.259438e-02 -0.9974 0.9974 7.259438e-02 201.2844 879.2531)" class="st4" width="5" height="91.3"/>
					</g>
					<g>
						
							<rect x="592.4" y="319.5" transform="matrix(7.259438e-02 -0.9974 0.9974 7.259438e-02 209.6502 911.3452)" class="st4" width="5" height="46.8"/>
					</g>
					<g class="st8">
						<path d="M470.9,291.8l-25.7-1.9c-3.5-0.3-6.1-3.3-5.8-6.7l1.2-16c0.3-3.5,3.3-6.1,6.7-5.8l25.7,1.9c3.5,0.3,6.1,3.3,5.8,6.7
							l-1.2,16C477.4,289.4,474.4,292,470.9,291.8z"/>
					</g>
					<g>
						<path class="st4" d="M439.5,281.6l0.1-1.8l19.7,1.4c2.3,0.2,4.3-1.5,4.4-3.8c0.2-2.3-1.6-4.3-3.8-4.4l-19.7-1.4l0.1-1.8
							l19.7,1.4c3.3,0.2,5.8,3.1,5.5,6.4c-0.2,3.3-3.1,5.8-6.4,5.5L439.5,281.6z"/>
					</g>
					<g>
						
							<rect x="470.5" y="271.2" transform="matrix(7.359822e-02 -0.9973 0.9973 7.359822e-02 159.4826 727.5938)" class="st4" width="1.8" height="13.5"/>
					</g>
					<g>
						
							<rect x="491.9" y="196.2" transform="matrix(7.269333e-02 -0.9974 0.9974 7.269333e-02 215.2488 722.5573)" class="st4" width="8.5" height="98.6"/>
					</g>
				</g>
			</g>
		</g>
	</g>
	<g>
		<g>
			<g>
				<g>
					<g>
						<polygon class="st5" points="298.1,126.2 298.1,0.4 306.7,7.4 313.8,0.4 321.2,6.6 328.3,0.4 335.3,7 343.8,0.4 350,6.6 
							356.8,0.4 363.7,7.2 372,0.4 379,7 386.4,0.4 394.3,7.2 401.4,0.4 408.2,6.4 415.6,0.4 423.5,6.4 430.3,0.4 430.3,126.2 
													"/>
					</g>
					<g>
						<g>
							<path class="st9" d="M298.1,126.2c0,0,0.8,0,2.4,0s4,0,7.1,0c6.2,0,15.2,0,26.8-0.1c23.1,0,56.1-0.1,95.9-0.1l-0.3,0.3
								c0-36.5,0-79.5,0-125.8l0.5,0.2c-2.2,1.9-4.5,3.9-6.8,5.9l-0.2,0.2l-0.2-0.2c-2.5-1.9-5.2-3.9-7.9-5.9h0.4
								c-0.7,0.5-1.4,1.1-2.2,1.7c-1.8,1.4-3.5,2.8-5.3,4.2l-0.2,0.2L408,6.6c-2.3-2-4.6-4-6.8-5.9h0.4c-2.4,2.3-4.7,4.5-7,6.8
								l-0.2,0.2l-0.2-0.2c-2.6-2.3-5.3-4.5-7.9-6.8h0.4c-2.5,2.2-5,4.4-7.5,6.5L379,7.4l-0.2-0.2c-2.4-2.2-4.7-4.4-7-6.6h0.4
								c-2.8,2.3-5.5,4.5-8.3,6.8l-0.2,0.2l-0.2-0.2c-2.3-2.3-4.6-4.5-6.8-6.8h0.4c-2.3,2.1-4.6,4.1-6.8,6.1L350,7l-0.2-0.2
								c-2.1-2.1-4.2-4.1-6.2-6.1h0.4c-2.9,2.2-5.7,4.4-8.5,6.5l-0.2,0.2l-0.2-0.2c-2.4-2.2-4.7-4.4-7-6.6h0.4
								c-2.4,2.1-4.7,4.1-7,6.1L321.2,7L321,6.8c-2.5-2.1-5-4.1-7.4-6.1h0.4c-2.4,2.4-4.7,4.7-7,7l-0.2,0.2l-0.2-0.2
								c-3-2.4-5.8-4.7-8.6-7l0.4-0.2c-0.1,37.9-0.1,69.3-0.1,91.2c0,11-0.1,19.6-0.1,25.5c0,2.9,0,5.2,0,6.7
								C298.1,125.4,298.1,126.2,298.1,126.2s0-0.8,0-2.3s0-3.8,0-6.7c0-5.9,0-14.5-0.1-25.4c0-22-0.1-53.5-0.1-91.4v-0.6l0.4,0.4
								c2.8,2.3,5.7,4.6,8.6,7h-0.4c2.3-2.3,4.6-4.6,7-7l0.2-0.2l0.2,0.2c2.4,2,4.9,4,7.5,6.1H321c2.3-2,4.6-4,7-6.1l0.2-0.2
								l0.2,0.2c2.3,2.2,4.7,4.3,7,6.5H335c2.8-2.2,5.6-4.3,8.5-6.6l0.2-0.2l0.2,0.2c2,2,4.1,4.1,6.2,6.1h-0.4
								c2.3-2,4.5-4.1,6.8-6.1l0.2-0.2l0.2,0.2c2.3,2.2,4.5,4.5,6.8,6.8h-0.4c2.7-2.2,5.5-4.5,8.3-6.8L372,0l0.2,0.2
								c2.3,2.2,4.7,4.3,7,6.5h-0.4c2.5-2.2,5-4.4,7.5-6.6l0.2-0.2l0.2,0.2c2.6,2.2,5.2,4.5,7.9,6.8h-0.4c2.3-2.2,4.7-4.5,7-6.8
								l0.2-0.2l0.2,0.2c2.3,2,4.5,3.9,6.8,5.9H408c1.7-1.4,3.5-2.8,5.3-4.2c0.8-0.6,1.5-1.2,2.2-1.7l0.2-0.2l0.2,0.2
								c2.7,2,5.4,4.1,7.9,5.9h-0.4c2.3-2,4.7-4.1,6.8-5.9l0.5-0.5v0.7c0,46.2,0,89.3,0,125.8v0.3h-0.3c-39.9-0.1-73-0.1-96.1-0.1
								c-11.5,0-20.6-0.1-26.7-0.1c-3.1,0-5.4,0-7,0C298.9,126.2,298.1,126.2,298.1,126.2z"/>
						</g>
					</g>
				</g>
				<g>
					<g>
						<ellipse class="st9" cx="339.4" cy="51.5" rx="27.5" ry="0.3"/>
					</g>
				</g>
				<g>
					<g>
						<ellipse class="st9" cx="339.4" cy="65.8" rx="27.5" ry="0.3"/>
					</g>
				</g>
				<g>
					<g>
						<ellipse class="st9" cx="339.4" cy="80.2" rx="27.5" ry="0.3"/>
					</g>
				</g>
				<g>
					<g>
						<ellipse class="st9" cx="339.4" cy="94.5" rx="27.5" ry="0.3"/>
					</g>
				</g>
				<g>
					<g>
						<ellipse class="st9" cx="402.8" cy="51.2" rx="9.5" ry="0.3"/>
					</g>
				</g>
				<g>
					<g>
						<ellipse class="st9" cx="402.8" cy="65.8" rx="9.5" ry="0.3"/>
					</g>
				</g>
				<g>
					<g>
						<ellipse class="st9" cx="402.8" cy="80.5" rx="9.5" ry="0.3"/>
					</g>
				</g>
				<g>
					<g>
						<ellipse class="st9" cx="402.8" cy="95.1" rx="9.5" ry="0.3"/>
					</g>
				</g>
			</g>
			<polygon class="st2" points="298.2,109.3 298.2,105.3 430,99.3 430,109.9 			"/>
		</g>
		<g>
			<g>
				<g>
					<g>
						<g>
							<path class="st10" d="M431.3,527.2l-141.4-0.7c-17-0.1-30.7-13.9-30.7-30.9l1.5-354.5c0.1-17,13.9-30.7,30.9-30.7l141.4,0.7
								c17,0.1,30.7,13.9,30.7,30.9l-1.5,354.5C462.2,513.6,448.3,527.3,431.3,527.2z"/>
						</g>
						<g>
							<path class="st5" d="M432.9,123.4l-27.4-0.1c-3.7,0-6.7,3.1-6.7,6.9v5c0,3.8-3,6.9-6.7,6.9l-53.4-0.2c-3.7,0-6.6-3.1-6.6-7
								v-5c0-3.8-3-7-6.6-7h-9.6l-24-0.1c-11.9-0.1-21.6,9.6-21.7,21.5l-1.5,346c0,11.9,9.6,21.6,21.5,21.7l141.1,0.7
								c11.9,0.1,21.6-9.6,21.7-21.5l1.5-346C454.4,133.2,444.8,123.5,432.9,123.4z"/>
						</g>
					</g>
				</g>
				<g>
					
						<ellipse transform="matrix(4.699896e-03 -1 1 4.699896e-03 -130.8546 827.2466)" class="st11" cx="350.1" cy="479.4" rx="2.5" ry="2.9"/>
				</g>
				<g>
					
						<ellipse transform="matrix(4.699896e-03 -1 1 4.699896e-03 -121.8796 836.3887)" class="st11" cx="359.2" cy="479.4" rx="2.5" ry="2.9"/>
				</g>
				<g>
					
						<ellipse transform="matrix(4.699896e-03 -1 1 4.699896e-03 -113.0058 845.4299)" class="st11" cx="368.2" cy="479.5" rx="2.5" ry="2.9"/>
				</g>
			</g>
		</g>
		<path class="st12" d="M419.2,333.2H303.7c-6.1,0-11.1-5-11.1-11.1V202.2c0-6.1,5-11.1,11.1-11.1h115.5c6.1,0,11.1,5,11.1,11.1
			v119.9C430.3,328.2,425.4,333.2,419.2,333.2z"/>
		<g>
			<g>
				<text transform="matrix(1 0 0 1 385.5947 367.0831)" class="st13 st14">10</text>
				<text transform="matrix(1 0 0 1 409.8789 359.2511)" class="st9 st13 st15">99</text>
				<rect x="409.9" y="361.3" class="st9" width="9.8" height="1.2"/>
			</g>
			<rect x="300.9" y="357.3" class="st9" width="50.8" height="1.6"/>
			<rect x="300.9" y="362.4" class="st9" width="30.8" height="1.6"/>
			<g>
				<g>
					<g>
						<g>
							<g>
								<path class="st16" d="M410.1,435.9l-101.5-0.5c-1.1,0-1.9-1.1-1.9-2.6l0.1-26.6c0-1.4,0.9-2.5,1.9-2.5l101.5,0.5
									c1,0,1.9,1.1,1.9,2.6l-0.1,26.6C412,434.8,411.2,435.9,410.1,435.9z"/>
							</g>
						</g>
						<g class="st8">
							<g>
								<path d="M410.1,435.9l-101.5-0.5c-1.1,0-1.9-1.1-1.9-2.6l0.1-26.6c0-1.4,0.9-2.5,1.9-2.5l101.5,0.5c1,0,1.9,1.1,1.9,2.6
									l-0.1,26.6C412,434.8,411.2,435.9,410.1,435.9z"/>
							</g>
						</g>
						<g>
							<g>
								<path class="st12" d="M410.1,427.4l-101.5-0.5c-1.1,0-1.9-1.1-1.9-2.6l0.1-26.6c0-1.4,0.9-2.5,1.9-2.5l101.5,0.5
									c1,0,1.9,1.1,1.9,2.6l-0.1,26.6C412,426.3,411.2,427.4,410.1,427.4z"/>
							</g>
						</g>
						<g>
							<path class="st4" d="M354.8,409.4c0,1.7-1.2,2.7-3.1,2.7h-2v2.5h-0.8v-7.9h2.8C353.7,406.7,354.8,407.7,354.8,409.4z
								 M354,409.4c0-1.3-0.8-2-2.3-2h-2v4h2C353.2,411.4,354,410.7,354,409.4z"/>
							<path class="st4" d="M361,412.6h-4.2l-0.9,2.1h-0.8l3.5-7.9h0.8l3.4,8H362L361,412.6z M360.7,411.9l-1.8-4.3l-1.8,4.3H360.7z
								"/>
							<path class="st4" d="M366.1,412v2.7h-0.8V412l-3-5.2h0.9l2.6,4.5l2.6-4.5h0.8L366.1,412z"/>
						</g>
					</g>
				</g>
			</g>
		</g>
		<g class="st6">
			<g class="st17">
				<g>
					<g>
						<path class="st4" d="M382.8,285c0,0-0.3,0-0.9,0.1c-0.6,0-1.5,0-2.6,0.1c-2.3,0-5.5,0.1-9.5,0.1c-8.1,0-19.3,0.1-31.9,0.1
							h-0.3v-0.3c-0.2-1.7-0.5-3.5-0.7-5.3c-2.2-15.5-4.1-29.4-5.2-38.3l0.2,0.2c-3.6,0-6.5-0.1-8.5-0.1c-0.9,0-1.7,0-2.3-0.1
							c-0.5,0-0.8,0-0.8-0.1c0,0,0.3,0,0.8-0.1c0.6,0,1.3,0,2.3-0.1c2,0,4.9-0.1,8.5-0.1h0.2v0.2c1.3,8.9,3.3,22.8,5.5,38.3
							c0.3,1.8,0.5,3.6,0.7,5.3l-0.3-0.3c12.6,0,23.8,0.1,31.9,0.1c4,0,7.2,0.1,9.5,0.1c1.1,0,1.9,0,2.6,0.1
							C382.5,285,382.8,285,382.8,285z"/>
					</g>
				</g>
				<g>
					<g>
						<path class="st4" d="M336.7,275.8c0,0,0.3,0,0.9-0.1c0.6,0,1.5,0,2.6-0.1c2.3,0,5.5-0.1,9.6-0.1c8.2,0,19.8-0.1,33.1-0.1
							l-0.3,0.3c1-5.6,2-11.6,3.1-17.8c0.6-3.2,1.1-6.4,1.7-9.4l0.3,0.4c-15.5,0-29.2-0.1-39-0.1c-4.9,0-8.8-0.1-11.6-0.1
							c-1.3,0-2.4,0-3.1-0.1c-0.3,0-0.6,0-0.8,0c-0.2,0-0.3,0-0.3,0s0.1,0,0.3,0c0.2,0,0.5,0,0.8,0c0.8,0,1.8,0,3.1-0.1
							c2.8,0,6.7-0.1,11.6-0.1c9.9,0,23.5-0.1,39-0.1h0.4l-0.1,0.4c-0.5,3-1.1,6.2-1.7,9.4c-1.1,6.2-2.2,12.3-3.2,17.8v0.3h-0.3
							c-13.3,0-24.9-0.1-33.1-0.1c-4.1,0-7.3-0.1-9.6-0.1c-1.1,0-1.9,0-2.6-0.1C337,275.8,336.7,275.8,336.7,275.8z"/>
					</g>
				</g>
				<g>
					<g>
						<path class="st4" d="M349.2,297.2c-0.1,0-0.1-0.4-0.3-1.1c-0.2-0.7-0.7-1.6-1.6-2.3c-1-0.7-2.5-1.1-4-0.5
							c-1.5,0.5-2.7,2.1-2.7,3.9s1.3,3.4,2.7,3.9c1.5,0.6,3,0.2,4-0.5s1.5-1.7,1.6-2.3C349.1,297.6,349.1,297.2,349.2,297.2
							c0,0,0.1,0.4,0,1.1s-0.6,1.8-1.6,2.6c-1,0.8-2.8,1.4-4.5,0.7c-1.7-0.6-3.2-2.4-3.2-4.5s1.5-3.9,3.2-4.5s3.5-0.1,4.5,0.7
							c1.1,0.8,1.5,1.9,1.6,2.6C349.3,296.8,349.2,297.2,349.2,297.2z"/>
					</g>
				</g>
				<g>
					<g>
						<path class="st4" d="M378.1,297.2c-0.1,0-0.1-0.4-0.3-1.1c-0.2-0.7-0.7-1.6-1.6-2.3c-1-0.7-2.5-1.1-4-0.5
							c-1.5,0.5-2.7,2.1-2.7,3.9s1.3,3.4,2.7,3.9c1.5,0.6,3,0.2,4-0.5s1.5-1.7,1.6-2.3C378,297.6,378,297.2,378.1,297.2
							c0,0,0.1,0.4,0,1.1s-0.6,1.8-1.6,2.6c-1,0.8-2.8,1.4-4.5,0.7c-1.7-0.6-3.2-2.4-3.2-4.5s1.5-3.9,3.2-4.5s3.5-0.1,4.5,0.7
							c1.1,0.8,1.5,1.9,1.6,2.6C378.2,296.8,378.1,297.2,378.1,297.2z"/>
					</g>
				</g>
				<g>
					<circle class="st3" cx="385.2" cy="244" r="12.8"/>
				</g>
			</g>
			<g class="st17">
				<g>
					<path class="st4" d="M391.6,240.7c0.1,0.1-2.5,3.2-6,6.8c-0.6,0.7-1.3,1.3-1.8,1.9l-0.2,0.2l-0.2-0.2c-2.8-2.5-4.7-4.3-4.6-4.4
						c0.1-0.1,2.2,1.5,5,3.9h-0.4c0.6-0.6,1.2-1.3,1.8-1.9C388.6,243.4,391.5,240.5,391.6,240.7z"/>
				</g>
			</g>
		</g>
	</g>
</g>
<g id="Character">
	<g>
		<g>
			<g>
				<path class="st11" d="M252.7,147.8c-0.2,0.4-4,35.6-4,35.6l14.9-2.6l3.8-29.1L252.7,147.8z"/>
			</g>
			<g>
				<polygon class="st9" points="248.7,183.4 247.6,182.7 250.9,147.3 252.6,147.8 				"/>
			</g>
			<g>
				<circle class="st9" cx="259.8" cy="153.2" r="0.7"/>
			</g>
		</g>
		<g>
			<path class="st18" d="M239.8,202.4l28.5,7.4l-4.3-35.4l0,0l-0.6-1.6l-10.4-1.6l1.2-7.7c0.6-3.6,4.2-5.9,7.8-5
				c1.1,0.3,2.3,0.6,3.4,0.9c2.4,0.6,4.5,2.3,5.6,4.5c2,3.9,3.9,8.1,3.7,7.8l0,0l0,0l15.3,41.4c0,0,4.7,8.4-1.7,16.7
				c-4.9,6.4-16.8,1.9-22.4,0.9l-36.5-8L239.8,202.4z"/>
		</g>
		<g>
			<g>
				<path class="st18" d="M131.7,263.8c-6.4-7.4-6.4-18.3,0.1-25.7l31.1-35.3l8.3,23.3c-0.6,0.4-24.2,25.8-24.2,25.8l20.3,25.4
					c3.1,3.9,4,9.1,2.4,13.9l-0.9,3.7c-1.3,5.4-7.3,8.3-12.4,6l-5.7-2.6c-0.7-0.3-0.9-1.1-0.5-1.8l0,0c0.2-0.3,0.6-0.5,1-0.5h7.8
					c1.6,0,3-1.1,3.4-2.7l0,0l0,0L131.7,263.8z"/>
			</g>
			<g>
				<g>
					<path class="st19" d="M142.6,247.4c0.1-0.1,1.3,0.9,2.7,2.3c1.4,1.4,2.3,2.7,2.2,2.9c-0.1,0.1-1.2-1-2.6-2.4
						C143.5,248.8,142.5,247.5,142.6,247.4z"/>
				</g>
			</g>
		</g>
		<g>
			<g>
				<g>
					<g>
						<path class="st18" d="M150,506.6c0,0,32-101.5,32.6-104.8c0.6-3-11.6-76.1-13.1-95l43.2,1.6c0,0,0,0.1,0,0.3l18.4,1
							l-16.4,207.7h-19.9l2-68.9C184.5,481.4,167,515,167,515L150,506.6z"/>
					</g>
				</g>
				<g>
					<g>
						<path class="st19" d="M195.9,473.2c0-0.6,0.2-23.1,0.2-23.1s8.8-25,9-24.3C205.3,426.5,195.9,473.2,195.9,473.2z"/>
					</g>
				</g>
			</g>
			<g>
				<g>
					<path class="st9" d="M180.1,150.3c-2.3-3.2-7.5-3-10.4-0.4s-4,6.8-4.1,10.7c-0.1,3.6,0.2,8-2.8,10.1c-1.2,0.9-2.7,1.2-4,1.9
						c-2.3,1.2-3.7,3.8-3.7,6.4c0,1.9,0.8,4.2-0.5,5.6c-0.6,0.7-1.6,1-2.5,1.5c-2.3,1.4-3.3,4.4-3.1,7.1c0.2,2.7,0.6,3.6,1.8,6.1
						c0,0,20.5-0.2,29.8,0C180.7,199.4,180.5,166.5,180.1,150.3"/>
				</g>
				<g>
					<g>
						<g>
							<g>
								<path class="st18" d="M213.3,192.6c-0.1-2.3,0.6-11.5,0.6-11.5s8.5-0.8,9.2-9.5c0.6-8.7,0.3-28.7,0.3-28.7l-15.5-8
									L190.7,148l1.7,44.7L213.3,192.6z"/>
							</g>
						</g>
						<g>
							<g>
								<g>
									<ellipse class="st9" cx="220.4" cy="157.4" rx="1.1" ry="1.1"/>
								</g>
							</g>
							<g>
								<g>
									<g>
										<path class="st9" d="M222.6,156.2c-0.1,0.1-0.9-0.6-2.1-0.6c-1.2-0.1-2,0.5-2.2,0.3c-0.1-0.1,0.1-0.3,0.5-0.6
											s1-0.5,1.7-0.5c0.7,0.1,1.3,0.4,1.7,0.7C222.6,155.9,222.7,156.2,222.6,156.2z"/>
									</g>
								</g>
							</g>
						</g>
						<g>
							<g>
								<g>
									<ellipse class="st9" cx="207.9" cy="157.3" rx="1.1" ry="1.1"/>
								</g>
							</g>
							<g>
								<g>
									<g>
										<path class="st9" d="M209.7,156.1c-0.1,0.1-0.9-0.6-2.1-0.6c-1.2-0.1-2,0.5-2.2,0.3c-0.1-0.1,0.1-0.3,0.5-0.6
											s1-0.5,1.7-0.5c0.7,0.1,1.3,0.4,1.7,0.7C209.6,155.7,209.8,156,209.7,156.1z"/>
									</g>
								</g>
							</g>
						</g>
						<g>
							<g>
								<g>
									<path class="st9" d="M213.8,166.2c0-0.1,0.7-0.2,1.9-0.2c0.3,0,0.6-0.1,0.6-0.3c0.1-0.2,0-0.6-0.2-1
										c-0.2-0.8-0.5-1.6-0.8-2.5c-1.1-3.5-1.8-6.4-1.7-6.5c0.1,0,1.1,2.8,2.2,6.3c0.3,0.9,0.5,1.7,0.7,2.5
										c0.1,0.4,0.3,0.8,0.1,1.3c-0.1,0.2-0.3,0.4-0.5,0.4s-0.4,0-0.5,0C214.5,166.4,213.8,166.3,213.8,166.2z"/>
								</g>
							</g>
						</g>
						<g>
							<g>
								<path class="st19" d="M214,181.1c0,0-5.7,0-11.2-4c0,0,2.5,6.4,11,6.1L214,181.1z"/>
							</g>
						</g>
						<g>
							<g>
								<path class="st9" d="M178.5,156.2c0.1-0.6-0.1,0.7,0-0.3l0,0l0,0c0.2-1.3,0.4-2.8,0.6-3.5c4.8-18.1,20.4-21.3,23.4-21.3
									c3.3,0,12.7-0.2,18,6.3c6.9,8.7,3,17.2,3,17.2l0,0l-13.7-2.4c1-3.4-0.4-7.7-1.2-9.7l-0.1-0.1c-2.6,13-16.6,14.2-16.6,14.2
									l-0.2,20.7C181.6,175.9,178.3,163.7,178.5,156.2L178.5,156.2z"/>
							</g>
						</g>
					</g>
					<g>
						<g>
							<path class="st9" d="M187.9,157.9c0-0.1,0.4,0,1.2,0.1s1.9,0.1,3.3,0c1.4-0.1,3-0.4,4.8-1c1.7-0.6,3.5-1.6,5.1-3
								s2.9-3,3.8-4.6c0.9-1.6,1.5-3.2,1.8-4.5c0.6-2.7,0.5-4.5,0.6-4.5c0,0,0.1,0.4,0.1,1.2s0,2-0.3,3.4s-0.8,3.1-1.7,4.7
								c-0.9,1.7-2.2,3.4-3.9,4.8c-1.7,1.4-3.6,2.4-5.4,3.1c-1.8,0.6-3.5,0.9-4.9,0.9s-2.6-0.1-3.4-0.2
								C188.3,158.1,187.8,157.9,187.9,157.9z"/>
						</g>
					</g>
					<g>
						<g>
							<g>
								<g>
									<path class="st18" d="M192.1,166.3c0.1-1.3,0.7-4.4,0.3-5.7c-0.4-1.2-1.8-1.5-3.3-1.5s-3.3,1.4-3.3,3.2
										c0,1.5,0.5,3,1.8,3.8s2.9,0.8,4.3,0.2"/>
								</g>
							</g>
						</g>
						<g>
							<g>
								<g>
									<g>
										<path class="st19" d="M190.5,164.6c0-0.1-0.4,0.1-1-0.1c-0.6-0.2-1.1-0.8-1.1-1.7c0-0.4,0.1-0.8,0.3-1s0.6-0.3,0.9-0.2
											c0.6,0.1,1,0.2,1,0.1c0-0.1-0.3-0.4-0.9-0.6c-0.3-0.1-0.9-0.1-1.3,0.2c-0.5,0.4-0.6,1-0.6,1.5c0,0.6,0.2,1.1,0.5,1.5
											s0.8,0.6,1.1,0.6C190.2,165,190.5,164.6,190.5,164.6z"/>
									</g>
								</g>
							</g>
						</g>
					</g>
					<g>
						<g>
							<path class="st11" d="M186.8,166c0.1,0.1-0.3,0.6-0.2,1.4c0.1,0.4,0.2,0.9,0.6,1.2c0.4,0.4,1,0.6,1.6,0.5s1.1-0.5,1.4-0.9
								c0.3-0.4,0.3-1,0.3-1.4c-0.1-0.8-0.6-1.2-0.5-1.3c0-0.1,0.7,0.2,1,1.2c0.1,0.5,0.1,1.2-0.2,1.8s-1,1.1-1.8,1.2
								c-0.8,0.1-1.6-0.2-2.1-0.7s-0.7-1.2-0.7-1.7C186.2,166.4,186.8,166,186.8,166z"/>
						</g>
					</g>
				</g>
				<g>
					<g>
						<path class="st11" d="M180.5,161.4c-0.1,0-0.6-0.5-1.2-1.5c-0.6-1-1.2-2.6-1.3-4.5c-0.1-1.8,0.2-3.5,0.6-4.6
							c0.4-1.1,0.9-1.7,1-1.7c0.2,0.1-1.2,2.7-0.9,6.2C178.9,158.9,180.7,161.3,180.5,161.4z"/>
					</g>
				</g>
				<g>
					<g>
						<path class="st9" d="M146.1,195.8c0,0-0.1-0.2-0.3-0.6c-0.2-0.4-0.4-1-0.5-1.8s-0.1-1.9,0.3-3c0.3-1.1,1-2.4,2.2-3.4
							c1.1-1,2.8-1.5,3.9-2.7c0.5-0.6,0.7-1.4,0.7-2.3c0-0.9-0.2-1.8-0.4-2.7c-0.2-1-0.2-2,0.1-3.1c0.3-1,0.9-2,1.7-2.7
							c1.5-1.6,3.5-2.6,5.4-3.7c1.9-1.1,3.7-2.4,4.5-4.2s0.6-3.9,0.7-5.8c0-3.9,1.6-7.4,3.8-9.4s4.8-2.6,6.4-2.5
							c0.8,0,1.5,0.1,1.9,0.2c0.4,0.1,0.6,0.2,0.6,0.2c0,0.1-0.9-0.3-2.5-0.2s-4,0.6-6.1,2.6s-3.5,5.3-3.5,9.1c0,1.9,0.2,4-0.7,6.1
							s-2.9,3.4-4.8,4.5c-2,1.1-3.9,2.1-5.3,3.6c-0.7,0.7-1.2,1.6-1.5,2.5s-0.2,1.9-0.1,2.8c0.1,0.9,0.3,1.9,0.4,2.8
							c0,1-0.3,1.9-0.9,2.6c-1.3,1.4-2.9,1.8-4,2.7s-1.8,2-2.1,3.1s-0.4,2.1-0.4,2.9C145.6,195,146.1,195.7,146.1,195.8z"/>
					</g>
				</g>
				<g>
					<g>
						<path class="st19" d="M210.3,167c0.6-0.2,1.3-0.2,1.9,0c0.6,0.3,1,0.8,1.1,1.5c0.1,0.6-0.3,1.3-0.9,1.6
							c-0.6,0.3-1.2,0.1-1.8-0.2c-0.5-0.3-0.9-0.8-1.1-1.3c-0.1-0.6,0.2-1.2,0.7-1.4"/>
					</g>
					<g>
						<g>
							<path class="st9" d="M209.5,165.3c0.2-0.1,0.6,1.6,2.1,2.7c1.5,1.1,3.2,1,3.2,1.2c0,0.1-0.4,0.2-1.1,0.2
								c-0.7,0-1.6-0.3-2.5-0.9c-0.9-0.6-1.4-1.5-1.6-2.1C209.4,165.8,209.4,165.4,209.5,165.3z"/>
						</g>
					</g>
				</g>
			</g>
			<g>
				<g>
					<g>
						<g>
							<g>
								<g>
									<path class="st3" d="M173,194.6c-4.9,1.2-7.7,2.8-15,10.8l-19.7,22.1l27.1,19.7l11.1-15.1l2.4,33c0,0-6.1,7.5-11.6,28.5
										c-4.4,16.9-4.8,34.2-6.1,47.4l-3.4,82.8l77.1,2.1c0,0-2.9-24.5-1.5-76.7c0.8-29.7-4-59.4-6.6-67.6l-4-21.5
										c0,0-0.3-6,3.4-11.1c6.3-8.8,1.8-19.2,1.8-19.2l20.6,7.6l13.6-30.6L234,196.1c-10.2-4.2-22.2-3.6-22.2-3.6l-21.4-0.2
										C190.4,192.3,180.3,191.5,173,194.6"/>
								</g>
							</g>
						</g>
					</g>
				</g>
			</g>
			<g>
				<g>
					<g>
						<g>
							<g>
								<path class="st20" d="M215,518.5v-1.9l-20.4-0.9l-0.1,7.7l1.3,0.1c5.6,0.3,28.4,1.3,32.2,0.1
									C232.2,522.4,215,518.5,215,518.5z"/>
							</g>
						</g>
						<g class="st8">
							<g>
								<path class="st4" d="M201.9,523.3c-0.3-1.7-1.2-3.3-2.6-4.3c-1.4-1.1-3-1.6-4.7-1.5v5.7L201.9,523.3z"/>
							</g>
						</g>
					</g>
					<g>
						<g class="st8">
							<path class="st4" d="M223.4,520.7c0,0,6,1.8,5.3,2.8c-0.8,1-23.9,0.9-34.1,0V523l27,0.3C221.6,523.3,222.2,520.7,223.4,520.7
								z"/>
						</g>
					</g>
					<g>
						<g>
							<g>
								<path class="st9" d="M194.3,523c0,0,0.1,0,0.3,0c0.3,0,0.6,0,1,0.1c1,0,2.2,0.1,3.7,0.2c3.1,0.1,7.4,0.2,12.2,0.3
									c4.8,0,9-0.1,12.2-0.2c1.5-0.1,2.7-0.1,3.7-0.1c0.4,0,0.7,0,1-0.1c0.2,0,0.3,0,0.3,0s-0.1,0-0.4,0c-0.3,0-0.6,0-1,0
									c-1,0-2.2,0-3.7,0.1c-3.1,0.1-7.4,0.1-12.2,0.1c-4.7,0-9-0.1-12.2-0.2c-1.5,0-2.7-0.1-3.7-0.1c-0.4,0-0.7,0-1,0
									C194.4,522.9,194.3,522.9,194.3,523z"/>
							</g>
						</g>
					</g>
					<g>
						<g>
							<g>
								<path class="st9" d="M221.6,523.6c0.1,0,0.1-0.9,0.7-1.8c0.5-0.9,1.3-1.3,1.3-1.4c0-0.1-0.9,0.3-1.5,1.3
									C221.5,522.7,221.5,523.6,221.6,523.6z"/>
							</g>
						</g>
					</g>
					<g>
						<g>
							<g>
								
									<ellipse transform="matrix(0.539 -0.8423 0.8423 0.539 -338.0565 421.6575)" class="st9" cx="216.2" cy="519.7" rx="1" ry="0.1"/>
							</g>
						</g>
					</g>
					<g>
						<g>
							<g>
								
									<ellipse transform="matrix(0.7467 -0.6651 0.6651 0.7467 -290.9455 274.1916)" class="st9" cx="214.6" cy="519.1" rx="0.8" ry="0.1"/>
							</g>
						</g>
					</g>
					<g>
						<g>
							<g>
								
									<ellipse transform="matrix(1.479972e-02 -0.9999 0.9999 1.479972e-02 -306.8315 724.186)" class="st9" cx="214.1" cy="517.8" rx="0.1" ry="1.1"/>
							</g>
						</g>
					</g>
					<g>
						<g>
							<g>
								<path class="st9" d="M212.6,516.4c0,0.1,0.5,0.3,1.2,0.3c0.7,0.1,1.2-0.1,1.2-0.2c0-0.1-0.5,0-1.2-0.1
									C213.1,516.5,212.6,516.4,212.6,516.4z"/>
							</g>
						</g>
					</g>
					<g>
						<g>
							<g>
								<path class="st9" d="M216.3,518.8c0,0,0.5,0.1,1.3,0c0.4,0,0.9-0.1,1.4-0.3c0.3-0.1,0.5-0.2,0.8-0.3
									c0.1-0.1,0.3-0.2,0.3-0.4c0.1-0.2,0-0.4-0.2-0.5c-1.2-0.6-2.5,0-3,0.7c-0.3,0.3-0.4,0.6-0.4,0.9c-0.1,0.2,0,0.4,0,0.4
									s0.1-0.5,0.6-1.1c0.2-0.3,0.6-0.6,1.1-0.7c0.5-0.1,1.1-0.2,1.6,0.1c0.2,0.2,0.1,0.4-0.1,0.5c-0.2,0.1-0.5,0.2-0.7,0.3
									c-0.5,0.2-1,0.3-1.3,0.3C216.8,518.8,216.3,518.8,216.3,518.8z"/>
							</g>
						</g>
					</g>
					<g>
						<g>
							<g>
								<path class="st9" d="M216.7,518.9c0,0,0.2-0.3,0.2-0.9c0-0.3-0.1-0.6-0.4-1c-0.2-0.3-0.5-0.7-1.1-0.7
									c-0.3,0-0.5,0.4-0.4,0.6c0,0.2,0.1,0.4,0.2,0.6c0.2,0.3,0.4,0.6,0.6,0.8c0.4,0.4,0.7,0.6,0.7,0.5c0,0-0.3-0.2-0.6-0.6
									c-0.2-0.2-0.4-0.5-0.5-0.8c-0.2-0.3-0.3-0.8,0-0.8s0.7,0.3,0.9,0.6s0.3,0.6,0.4,0.8C216.7,518.5,216.6,518.9,216.7,518.9z"
									/>
							</g>
						</g>
					</g>
					<g>
						<g>
							<g>
								<path class="st9" d="M194.7,517.4c0,0,0.6-0.1,1.5,0.1c0.9,0.1,2.2,0.5,3.3,1.4s1.7,2,2,2.9s0.3,1.5,0.4,1.4
									c0,0,0-0.1,0-0.4c0-0.3-0.1-0.6-0.2-1.1c-0.3-0.9-0.9-2.1-2-3s-2.5-1.3-3.4-1.3c-0.5,0-0.9,0-1.1,0
									C194.9,517.4,194.7,517.4,194.7,517.4z"/>
							</g>
						</g>
					</g>
					<g>
						<g>
							<g>
								<path class="st9" d="M204.5,521.3c0,0.1,1.3,0.3,3,0.3c1.6,0,3-0.2,3-0.2c0-0.1-1.3,0-3,0
									C205.8,521.4,204.5,521.3,204.5,521.3z"/>
							</g>
						</g>
					</g>
					<g>
						<g>
							<g>
								<path class="st9" d="M200.5,521.3c0,0,0.1,0.3,0.2,0.6c0.1,0.3,0.2,0.6,0.3,0.6s0.1-0.3-0.1-0.7
									C200.8,521.4,200.6,521.3,200.5,521.3z"/>
							</g>
						</g>
					</g>
					<g>
						<g>
							<g>
								
									<ellipse transform="matrix(0.7147 -0.6994 0.6994 0.7147 -306.6675 287.7194)" class="st9" cx="199.4" cy="519.8" rx="0.1" ry="0.5"/>
							</g>
						</g>
					</g>
					<g>
						<g>
							<g>
								<path class="st9" d="M196.9,518.6c0,0.1,0.3,0.1,0.6,0.2c0.3,0.1,0.5,0.3,0.6,0.2c0.1,0-0.1-0.3-0.5-0.5
									C197.2,518.4,196.9,518.5,196.9,518.6z"/>
							</g>
						</g>
					</g>
					<g>
						<g>
							<g>
								
									<ellipse transform="matrix(0.3636 -0.9315 0.9315 0.3636 -358.3128 512.0521)" class="st9" cx="195.6" cy="518.3" rx="0.1" ry="0.3"/>
							</g>
						</g>
					</g>
				</g>
			</g>
			<g>
				<g>
					<g>
						<g>
							<g>
								<path class="st20" d="M167.3,516.7l0.8-1.7l-18.2-9.2l-3.2,7l1.1,0.6c5,2.6,25.4,12.8,29.3,13.3
									C181.4,527.3,167.3,516.7,167.3,516.7z"/>
							</g>
						</g>
						<g class="st8">
							<g>
								<path class="st4" d="M153.4,515.7c0.4-1.7,0.2-3.5-0.6-5s-2.1-2.7-3.7-3.3l-2.3,5.2L153.4,515.7z"/>
							</g>
						</g>
					</g>
					<g>
						<g class="st8">
							<path class="st4" d="M174,522.1c0,0,4.8,4.1,3.7,4.7c-1.1,0.6-22.2-9-31.1-14l0.2-0.4l24.5,11.4
								C171.3,523.8,172.9,521.7,174,522.1z"/>
						</g>
					</g>
					<g>
						<g>
							<g>
								<path class="st9" d="M146.6,512.3c0,0,0.1,0.1,0.3,0.2c0.3,0.1,0.6,0.3,0.9,0.5c0.9,0.5,2,1,3.3,1.7c2.8,1.4,6.7,3.2,11,5.2
									s8.3,3.7,11.2,4.8c1.3,0.5,2.5,1,3.4,1.4c0.3,0.1,0.7,0.3,0.9,0.4c0.2,0.1,0.3,0.1,0.3,0.1s-0.1-0.1-0.3-0.2
									c-0.3-0.1-0.6-0.3-0.9-0.4c-0.9-0.4-2.1-0.9-3.4-1.5c-2.9-1.2-6.8-2.9-11.1-4.9s-8.2-3.8-11-5.1c-1.3-0.6-2.4-1.2-3.3-1.6
									c-0.3-0.2-0.6-0.3-0.9-0.4C146.7,512.3,146.6,512.3,146.6,512.3z"/>
							</g>
						</g>
					</g>
					<g>
						<g>
							<g>
								<path class="st9" d="M171.2,524.1c0.1,0,0.5-0.7,1.4-1.3s1.7-0.7,1.7-0.8s-0.9-0.1-1.9,0.6
									C171.5,523.2,171.1,524.1,171.2,524.1z"/>
							</g>
						</g>
					</g>
					<g>
						<g>
							<g>
								
									<ellipse transform="matrix(0.8365 -0.548 0.548 0.8365 -256.5907 176.7269)" class="st9" cx="167.8" cy="518.3" rx="1" ry="0.1"/>
							</g>
						</g>
					</g>
					<g>
						<g>
							<g>
								
									<ellipse transform="matrix(0.9537 -0.3007 0.3007 0.9537 -147.7756 74.0532)" class="st9" cx="166.7" cy="517.1" rx="0.8" ry="0.1"/>
							</g>
						</g>
					</g>
					<g>
						<g>
							<g>
								
									<ellipse transform="matrix(0.4231 -0.9061 0.9061 0.4231 -371.0383 448.4839)" class="st9" cx="166.7" cy="515.6" rx="0.1" ry="1.1"/>
							</g>
						</g>
					</g>
					<g>
						<g>
							<g>
								<path class="st9" d="M165.9,513.8c0,0,0.3,0.5,0.9,0.8c0.6,0.3,1.2,0.4,1.2,0.4c0-0.1-0.5-0.3-1.1-0.6
									C166.4,514.1,166,513.8,165.9,513.8z"/>
							</g>
						</g>
					</g>
					<g>
						<g>
							<g>
								<path class="st9" d="M168.4,517.5c0,0,0.4,0.3,1.2,0.5c0.4,0.1,0.9,0.2,1.4,0.3c0.3,0,0.5,0.1,0.9,0c0.2,0,0.3-0.1,0.5-0.2
									c0.1-0.2,0.1-0.4,0-0.6c-0.9-1.1-2.3-1-3-0.6c-0.4,0.2-0.6,0.4-0.7,0.6c-0.1,0.2-0.2,0.3-0.2,0.3s0.3-0.4,1-0.8
									c0.3-0.2,0.8-0.3,1.3-0.2s1.1,0.3,1.4,0.7c0.1,0.2,0,0.4-0.3,0.4s-0.5,0-0.8,0c-0.5,0-1-0.1-1.4-0.2
									C168.8,517.7,168.4,517.5,168.4,517.5z"/>
							</g>
						</g>
					</g>
					<g>
						<g>
							<g>
								<path class="st9" d="M168.6,517.7c0,0,0.3-0.2,0.5-0.8c0.1-0.3,0.1-0.6,0.1-1c-0.1-0.4-0.2-0.8-0.7-1.1
									c-0.3-0.1-1,0.5-1,0.7c-0.1,0.2,0.3,0.1,0.4,0.3c0,0.4,0.1,0.7,0.2,1C168.3,517.4,168.5,517.7,168.6,517.7
									c-0.1-0.1-0.2-0.4-0.4-0.9c-0.1-0.3-0.1-0.6-0.2-0.9c0-0.3,0-0.8,0.4-0.7c0.3,0.1,0.5,0.5,0.6,0.9c0.1,0.3,0,0.7,0,0.9
									C168.9,517.4,168.6,517.7,168.6,517.7z"/>
							</g>
						</g>
					</g>
					<g>
						<g>
							<g>
								<path class="st9" d="M149.2,507.4c0,0,0.6,0.2,1.3,0.7c0.8,0.5,1.8,1.3,2.4,2.6c0.6,1.3,0.8,2.6,0.7,3.5s-0.3,1.5-0.2,1.5
									c0,0,0.1-0.1,0.2-0.4c0.1-0.2,0.2-0.6,0.2-1.1c0.1-0.9,0-2.3-0.6-3.6c-0.7-1.3-1.7-2.2-2.6-2.6c-0.4-0.2-0.8-0.4-1-0.4
									S149.2,507.4,149.2,507.4z"/>
							</g>
						</g>
					</g>
					<g>
						<g>
							<g>
								<path class="st9" d="M156.5,515c0,0.1,1.1,0.8,2.6,1.5s2.8,1,2.8,1c0-0.1-1.2-0.5-2.7-1.2
									C157.7,515.6,156.6,514.9,156.5,515z"/>
							</g>
						</g>
					</g>
					<g>
						<g>
							<g>
								<path class="st9" d="M152.9,513.3c-0.1,0,0,0.3,0,0.6s0,0.6,0,0.6c0.1,0,0.2-0.2,0.2-0.6C153.1,513.6,153,513.3,152.9,513.3
									z"/>
							</g>
						</g>
					</g>
					<g>
						<g>
							<g>
								
									<ellipse transform="matrix(0.9382 -0.3462 0.3462 0.9382 -167.6507 84.429)" class="st9" cx="152.5" cy="511.5" rx="0.1" ry="0.5"/>
							</g>
						</g>
					</g>
					<g>
						<g>
							<g>
								<path class="st9" d="M150.7,509.4c0,0.1,0.2,0.2,0.5,0.4c0.2,0.2,0.4,0.5,0.4,0.4c0.1,0,0-0.3-0.3-0.6
									C151.1,509.3,150.7,509.3,150.7,509.4z"/>
							</g>
						</g>
					</g>
					<g>
						<g>
							<g>
								
									<ellipse transform="matrix(0.7145 -0.6996 0.6996 0.7145 -313.089 249.9187)" class="st9" cx="149.7" cy="508.6" rx="0.1" ry="0.3"/>
							</g>
						</g>
					</g>
				</g>
			</g>
		</g>
		<g>
			<g>
				
					<ellipse transform="matrix(0.7421 -0.6703 0.6703 0.7421 -72.3555 236.3667)" class="st19" cx="271" cy="212.2" rx="0.3" ry="3.9"/>
			</g>
		</g>
		<g>
			<g>
				<path class="st4" d="M242.5,199.4c0,0-0.3,0-0.8,0.1c-0.6,0-1.3,0-2.3,0.1c-2.1,0-4.9,0.1-8.4,0.1c-7.2,0-16.9,0.1-27.7,0.1
					s-20.5-0.1-27.7-0.1c-3.5,0-6.3-0.1-8.4-0.1c-0.9,0-1.7,0-2.3-0.1c-0.5,0-0.8,0-0.8-0.1c0,0,0.3,0,0.8-0.1c0.6,0,1.3,0,2.3-0.1
					c2.1,0,4.9-0.1,8.4-0.1c7.2,0,16.9-0.1,27.7-0.1s20.5,0.1,27.7,0.1c3.5,0,6.3,0.1,8.4,0.1c0.9,0,1.7,0,2.3,0.1
					C242.2,199.4,242.5,199.4,242.5,199.4z"/>
			</g>
		</g>
		<g>
			<g>
				<path class="st4" d="M259.8,211.6c0,0-0.4,0-1.1,0.1c-0.8,0-1.8,0-3.1,0.1c-2.8,0-6.7,0.1-11.5,0.1c-9.8,0-23.2,0.1-37.9,0.1
					c-14.8,0-28.2-0.1-37.9-0.1c-4.8,0-8.7-0.1-11.5-0.1c-1.3,0-2.4,0-3.1-0.1c-0.7,0-1.1,0-1.1-0.1c0,0,0.4,0,1.1-0.1
					c0.8,0,1.8,0,3.1-0.1c2.8,0,6.7-0.1,11.5-0.1c9.8,0,23.2-0.1,37.9-0.1c14.8,0,28.2,0.1,37.9,0.1c4.8,0,8.7,0.1,11.5,0.1
					c1.3,0,2.4,0,3.1,0.1S259.8,211.6,259.8,211.6z"/>
			</g>
		</g>
		<g>
			<g>
				<path class="st4" d="M251.3,226.2c0,0-0.4,0-1.1,0.1c-0.8,0-1.9,0-3.2,0.1c-2.9,0-6.9,0.1-11.9,0.1c-10.1,0-24,0.1-39.4,0.1
					s-29.2-0.1-39.4-0.1c-5,0-9.1-0.1-11.9-0.1c-1.4,0-2.4,0-3.2-0.1c-0.7,0-1.1,0-1.1-0.1c0,0,0.4,0,1.1-0.1c0.8,0,1.9,0,3.2-0.1
					c2.9,0,6.9-0.1,11.9-0.1c10.1,0,24-0.1,39.4-0.1c15.3,0,29.2,0.1,39.4,0.1c5,0,9.1,0.1,11.9,0.1c1.4,0,2.4,0,3.2,0.1
					C250.9,226.2,251.3,226.2,251.3,226.2z"/>
			</g>
		</g>
		<g>
			<g>
				<path class="st4" d="M228.5,241.2c0,0-0.7,0.1-2,0.1c-1.4,0-3.3,0.1-5.5,0.1c-4.7,0.1-11.1,0.1-18.2,0.1c-7.1,0-13.6,0-18.2-0.1
					c-2.2,0-4.1-0.1-5.5-0.1c-1.3,0-2-0.1-2-0.1s0.7-0.1,2-0.1c1.4,0,3.3-0.1,5.5-0.1c4.7-0.1,11.1-0.1,18.2-0.1
					c7.1,0,13.6,0,18.2,0.1c2.2,0,4.1,0.1,5.5,0.1C227.8,241.2,228.5,241.2,228.5,241.2z"/>
			</g>
		</g>
		<g>
			<g>
				<path class="st4" d="M223.2,255.9c0,0-0.6,0.1-1.8,0.1c-1.3,0-2.9,0.1-4.8,0.1c-4.1,0.1-9.7,0.1-15.9,0.1s-11.8,0-15.9-0.1
					c-1.9,0-3.5-0.1-4.8-0.1c-1.1,0-1.8-0.1-1.8-0.1s0.6-0.1,1.8-0.1c1.3,0,2.9-0.1,4.8-0.1c4.1-0.1,9.7-0.1,15.9-0.1
					s11.8,0,15.9,0.1c1.9,0,3.6,0.1,4.8,0.1C222.5,255.8,223.2,255.9,223.2,255.9z"/>
			</g>
		</g>
		<g>
			<g>
				<path class="st4" d="M226,249c0,0-0.7,0.1-1.9,0.1c-1.3,0-3.1,0.1-5.2,0.1c-4.4,0.1-10.4,0.1-17,0.1c-6.7,0-12.7,0-17-0.1
					c-2.1,0-3.8-0.1-5.2-0.1c-1.2,0-1.9-0.1-1.9-0.1s0.7-0.1,1.9-0.1c1.3,0,3.1-0.1,5.2-0.1c4.4-0.1,10.4-0.1,17-0.1
					c6.7,0,12.7,0,17,0.1c2.1,0,3.8,0.1,5.2,0.1C225.3,248.9,226,248.9,226,249z"/>
			</g>
		</g>
		<g>
			<g>
				<path class="st4" d="M229.1,233.9c0,0-0.7,0.1-2.1,0.1c-1.4,0-3.3,0.1-5.6,0.1c-4.8,0.1-11.3,0.1-18.6,0.1s-13.8,0-18.6-0.1
					c-2.3,0-4.2-0.1-5.6-0.1c-1.3,0-2.1-0.1-2.1-0.1s0.7-0.1,2.1-0.1c1.4,0,3.3-0.1,5.6-0.1c4.8-0.1,11.3-0.1,18.6-0.1
					s13.8,0,18.6,0.1c2.3,0,4.2,0.1,5.6,0.1C228.4,233.8,229.1,233.9,229.1,233.9z"/>
			</g>
		</g>
		<g>
			<g>
				<path class="st4" d="M175,233.9c0,0.1-1.6,0.2-4.1,0.2c-2.5,0.1-6,0.1-9.9,0.1s-7.4,0-9.9-0.1s-4.1-0.1-4.1-0.2s1.6-0.2,4.1-0.2
					c2.5-0.1,6-0.1,9.9-0.1s7.4,0,9.9,0.1C173.5,233.7,175,233.8,175,233.9z"/>
			</g>
		</g>
		<g>
			<g>
				<ellipse class="st9" cx="243.5" cy="233.1" rx="6.9" ry="0.3"/>
			</g>
		</g>
		<g>
			<g>
				<path class="st4" d="M255.6,218.7c0,0-0.4,0-1.1,0.1c-0.8,0-1.9,0-3.2,0.1c-2.8,0-6.8,0.1-11.7,0.1c-10,0-23.6,0.1-38.7,0.1
					c-15.1,0-28.8-0.1-38.7-0.1c-4.9,0-8.9-0.1-11.7-0.1c-1.3,0-2.4,0-3.2-0.1c-0.7,0-1.1,0-1.1-0.1s0.4,0,1.1-0.1
					c0.8,0,1.9,0,3.2-0.1c2.8,0,6.8-0.1,11.7-0.1c10,0,23.6-0.1,38.7-0.1c15.1,0,28.8,0.1,38.7,0.1c4.9,0,8.9,0.1,11.7,0.1
					c1.3,0,2.4,0,3.2,0.1C255.2,218.6,255.6,218.6,255.6,218.7z"/>
			</g>
		</g>
		<g>
			<g>
				<path class="st4" d="M257.7,205c0,0-0.3,0-1,0.1c-0.7,0-1.7,0-2.9,0.1c-2.6,0-6.2,0.1-10.7,0.1c-9.1,0-21.5,0.1-35.2,0.1
					s-26.2-0.1-35.3-0.1c-4.5,0-8.1-0.1-10.7-0.1c-1.2,0-2.2,0-2.9-0.1c-0.7,0-1,0-1-0.1s0.3,0,1-0.1c0.7,0,1.7,0,2.9-0.1
					c2.6,0,6.2-0.1,10.7-0.1c9.1,0,21.5-0.1,35.3-0.1c13.7,0,26.2,0.1,35.2,0.1c4.5,0,8.1,0.1,10.7,0.1c1.2,0,2.2,0,2.9,0.1
					S257.7,205,257.7,205z"/>
			</g>
		</g>
	</g>
</g>
<g id="Device" class="st6">
</g>
<g id="Speech_Bubble">
</g>
<g>
	<path class="st4" d="M361.4,216.2l-35,17.5v26.8c0,21.6,13.7,40.6,34.2,47.4l0.9,0.3l0.9-0.3c20.4-6.8,34.2-25.9,34.2-47.4v-26.8
		L361.4,216.2z M391.1,260.4c0,18.9-11.9,35.7-29.6,42c-17.8-6.3-29.6-23.1-29.6-42V237l29.6-14.8l29.6,14.8V260.4z"/>
	<path class="st4" d="M361.4,237.2l-25.9,20.2l3.3,4.3l3.7-2.9V281h37.7v-22.3l3.7,2.9l3.3-4.3l-12.4-9.7v-9.8h-5.4v5.6L361.4,237.2
		z M364.1,275.6h-5.4v-5.4h5.4V275.6z M374.9,275.6h-5.4v-10.8h-16.2v10.8H348v-21.1l13.5-10.5l13.5,10.5V275.6z"/>
</g>
</svg>
