<?xml version="1.0" encoding="utf-8"?>
<!-- Generator: Adobe Illustrator 25.0.1, SVG Export Plug-In . SVG Version: 6.00 Build 0)  -->
<svg version="1.1" id="Layer_1" xmlns="http://www.w3.org/2000/svg" xmlns:xlink="http://www.w3.org/1999/xlink" x="0px" y="0px"
	 viewBox="0 0 66.7 91.1" style="enable-background:new 0 0 66.7 91.1;" xml:space="preserve">
<style type="text/css">
	.st0{display:none;}
	.st1{display:inline;fill:#F5F5F5;}
	.st2{fill:#E8505B;}
	.st3{fill:#75CFAF;}
	.st4{fill:#E0E0E0;}
	.st5{fill:#999999;}
	.st6{fill:#263238;}
</style>
<g id="Background_Complete">
</g>
<g id="Background_Simple" class="st0">
	<path class="st1" d="M19.2-251.8c24,68.6,3.3,148.5-44.8,202.9C-73.7,5.6-145.9,35.5-218.4,40.5C-270.1,44-338.8,34.8-381.9,6
		S-455-65-444.6-119.6c3.7-19.2,16.1-45,30.9-57.8c23.7-20.5,59-16.7,89.9-11.7s66.2,8.8,90-11.5c18.2-15.6,23.9-41,35.2-62.2
		c19.2-36.1,57.5-61.2,98.2-64.5c5.7-0.5,11.3-0.5,17-0.1c44,2.9,82.4,30.7,100.5,70.9L19.2-251.8z"/>
</g>
<g id="Floor">
</g>
<g id="Device">
</g>
<g id="Character">
</g>
<g id="Plant">
	<g>
		<g>
			<path class="st2" d="M30.9,37.3c-2.5,3.6-7.3,2.4-9.6,0.2c-2.2-2.2-3.2-5.3-4.1-8.3c-2-6.9-4-14.1-2.5-21.1
				C15.2,6,16,3.9,17.5,2.3s3.7-2.5,5.8-1.9c2.4,0.6,4,3,5.1,5.3c3.2,6.7,4.9,14.1,5,21.6C33.3,30.8,32.9,34.4,30.9,37.3"/>
		</g>
		<g>
			<path class="st3" d="M30.9,37.3c-2.5,3.6-7.3,2.4-9.6,0.2c-2.2-2.2-3.2-5.3-4.1-8.3c-2-6.9-4-14.1-2.5-21.1
				C15.2,6,16,3.9,17.5,2.3s3.7-2.5,5.8-1.9c2.4,0.6,4,3,5.1,5.3c3.2,6.7,4.9,14.1,5,21.6C33.3,30.8,32.9,34.4,30.9,37.3"/>
		</g>
		<g>
			<path class="st4" d="M21.6,55.3c-4.1-2.1-8.9-2.4-13.4-1.6c-2.4,0.4-5,1.1-6.6,3c-1.7,1.8-2,5-0.1,6.6c1.1,0.9,2.7,1.1,4.2,1.1
				c3.5,0,7.5-0.7,10.3,1.5c1.6,1.2,2.7,3.2,4.6,3.8c1.9,0.6,4-0.5,5-2.2c1-1.7,1-3.8,0.6-5.8C26.2,61.6,25.7,57.4,21.6,55.3z"/>
		</g>
		<g>
			<path class="st5" d="M37.8,42.4c-2.7-3.2-3.2-7.9-2-11.9s3.9-7.5,7.1-10.3c3.7-3.3,8-5.8,12.7-7.5c1.8-0.6,3.8-1.2,5.7-1
				c1.9,0.2,3.9,1.2,4.8,2.9c1.3,2.5,0.1,5.6-1.3,8.1c-2.4,4.4-5.2,8.7-8.3,12.7c-2.5,3.2-5.3,6.4-9.1,7.8c-3.8,1.5-7.7,1.3-9.8-1.4
				"/>
		</g>
		<g>
			<g>
				<path class="st6" d="M31.1,91c0,0-0.1-0.6-0.2-1.6c-0.1-1.2-0.3-2.7-0.4-4.4c-0.2-1.9-0.5-4.1-1-6.5c-0.5-2.4-1.3-5-2.4-7.7
					c-1.1-2.6-2.4-5-3.9-6.9c-1.5-1.9-3.3-3.3-4.9-4.1c-1.7-0.8-3.1-1.1-4.2-1.3c-1-0.1-1.6-0.2-1.6-0.2c0,0,0.6-0.1,1.6,0
					c1.1,0.1,2.6,0.3,4.3,1.1c1.7,0.8,3.6,2.2,5.2,4.1c1.6,2,3,4.4,4.1,7.1c1.1,2.7,1.8,5.3,2.3,7.8c0.5,2.5,0.7,4.7,0.9,6.6
					c0.1,1.9,0.2,3.4,0.2,4.4C31.2,90.5,31.2,91,31.1,91z"/>
			</g>
		</g>
		<g>
			<g>
				<path class="st6" d="M30.8,87.6c0,0,0-0.3,0-0.8c0-0.6,0-1.3,0-2.1c0-1.9,0-4.6-0.1-7.9c-0.2-6.7-0.7-15.9-1.8-26
					c-1.1-10.1-2.6-19.2-3.9-25.8c-0.3-1.6-0.6-3.1-0.9-4.4c-0.3-1.3-0.5-2.4-0.8-3.3c-0.2-0.8-0.4-1.5-0.5-2.1
					c-0.1-0.5-0.2-0.7-0.1-0.7c0,0,0.1,0.2,0.3,0.7c0.2,0.5,0.4,1.2,0.6,2.1c0.3,0.9,0.6,2,0.9,3.3c0.3,1.3,0.7,2.8,1,4.4
					c1.5,6.5,3,15.6,4.1,25.8c1.1,10.1,1.6,19.4,1.7,26.1c0,3.3,0,6-0.1,7.9c-0.1,0.9-0.1,1.6-0.1,2.1
					C30.9,87.4,30.8,87.6,30.8,87.6z"/>
			</g>
		</g>
		<g>
			<g>
				<path class="st6" d="M30.8,69.8c0,0,0-0.8,0-2.2c0.1-1.4,0.3-3.5,0.7-6.1c0.4-2.5,1-5.6,2-8.9c0.9-3.3,2.1-6.9,3.7-10.5
					c3.1-7.3,7.3-13.3,10.9-17c0.9-1,1.8-1.7,2.6-2.4c0.4-0.3,0.7-0.7,1.1-0.9c0.4-0.2,0.7-0.5,1-0.7c1.2-0.8,1.9-1.2,1.9-1.2
					c0.1,0.1-2.7,1.8-6.2,5.5c-3.5,3.7-7.6,9.7-10.6,16.9C36.2,46,35,49.5,34,52.8c-1,3.3-1.6,6.3-2.1,8.8c-0.5,2.5-0.7,4.6-0.9,6
					C30.9,69,30.8,69.8,30.8,69.8z"/>
			</g>
		</g>
	</g>
</g>
<g id="Speech_Bubble">
</g>
</svg>
