
<?xml version="1.0" encoding="utf-8"?>
<!-- Generator: Adobe Illustrator 25.0.1, SVG Export Plug-In . SVG Version: 6.00 Build 0)  -->
<svg version="1.1" id="Layer_1" xmlns="http://www.w3.org/2000/svg" xmlns:xlink="http://www.w3.org/1999/xlink" x="0px" y="0px"
	 viewBox="0 0 119.6 171.9" style="enable-background:new 0 0 119.6 171.9;" xml:space="preserve">
<style type="text/css">
	.st0{fill:#75CFAF;}
	.st1{fill:#E0E0E0;}
	.st2{display:none;}
	.st3{display:inline;fill:#F5F5F5;}
</style>
<g id="Background_Complete">
	<g>
		<g>
			<g>
				<g>
					<path class="st0" d="M92.7,152.7c22.1-15.4,27.1-44.1,26.3-69.9c-0.1-4.3,0.3-8.8-1.7-12.6c-2-3.8-6.8-6.4-10.7-4.5
						c-3.2,1.5-4.6,5.2-6.4,8.3c-2.4,4.1-5.9,7.5-10.1,9.6c-2.7,1.4-6.1,2.3-8.8,0.8c-3.7-2-4.1-7.2-4.1-11.5c0.1-8,0.1-16,0.1-23.9
						c0-4.3,0-8.6-1.3-12.7c-1.3-4.1-4.3-7.8-8.3-9c-4.1-1.1-9.1,1.2-10,5.4c-0.4,1.7,0,3.6-0.1,5.3c-0.1,1.8-0.9,3.7-2.6,4.2
						c-1.7,0.5-3.4-0.7-4.7-2C45.8,36,42.8,30.4,40,24.9c-2.8-5.5-5.5-11.2-9.5-15.9c-4-4.7-9.6-8.4-15.7-8.8
						C8.6-0.1,2.1,3.6,0.6,9.6c-1.6,6,2,12.2,5.8,17c5.7,7.2,12.4,13.7,19.9,19c1.3,1,2.8,2,3.3,3.6c0.9,2.9-1.8,5.7-4.6,6.6
						c-3.2,1.1-6.6,0.7-10,1.1c-3.3,0.4-7,1.9-8.2,5c-1.8,4.4,1.9,9,5.5,12c7.2,6,15.4,10.8,24.2,14c3.1,1.2,6.5,2.2,9,4.4
						c2.5,2.2,4.1,6.1,2.5,9.1c-1.5,3-5.5,4-8.8,3.4c-3.3-0.6-6.2-2.4-9.4-3.6c-5.9-2.2-13.5-1.8-17.2,3.3c-2.5,3.3-2.7,8-1.4,12
						c1.3,4,3.8,7.4,6.5,10.6c9.4,11.1,21.5,20,35.1,24.7C66.5,156.4,79.1,157.7,92.7,152.7"/>
				</g>
			</g>
		</g>
		<g>
			<g>
				<g>
					<g>
						<path class="st1" d="M93,171.8c-0.9-10.2-3.2-22.3-7-35.3c-3.8-13-9.1-26.9-15.2-41.3c-1.5-3.6-3.1-7.1-4.5-10.6
							c-1.5-3.5-3-6.9-4.6-10.2c-3.3-6.6-7-12.7-10.6-18.3c-3.7-5.7-7.4-10.9-10.8-15.8C36.6,35.4,33.3,31,30.1,27
							c-6.4-7.9-12.3-13.7-16.6-17.5c-2.1-1.9-3.8-3.3-5-4.3C8,4.7,7.5,4.4,7.2,4.1C6.9,3.9,6.8,3.8,6.7,3.8c0,0,0.1,0.1,0.4,0.4
							c0.3,0.3,0.7,0.7,1.3,1.1c1.1,1,2.8,2.5,4.8,4.4c4.2,3.9,10,9.7,16.3,17.6c3.2,4,6.5,8.5,10,13.3c3.5,4.9,7.1,10.1,10.8,15.8
							c3.6,5.7,7.3,11.7,10.6,18.3c1.6,3.3,3.1,6.7,4.6,10.2c1.5,3.5,3,7,4.5,10.6c6.1,14.3,11.4,28.2,15.2,41.2
							c3.8,12.9,6.1,24.9,7.1,35.1"/>
					</g>
				</g>
			</g>
		</g>
		<g>
			<g>
				<g>
					<g>
						<path class="st1" d="M61.4,74.4c0.1,0,0.2-0.6,0.4-1.8c0.2-1.2,0.5-2.9,0.8-5c0.6-4.3,1.2-10.2,1.9-16.7
							c0.7-6.5,1.4-12.4,2.1-16.6c0.3-2.1,0.6-3.8,0.8-5c0.2-1.2,0.3-1.8,0.2-1.9s-0.2,0.6-0.5,1.8c-0.3,1.2-0.7,2.9-1.1,5
							c-0.8,4.2-1.6,10.1-2.3,16.7C63.1,57.2,62.5,63,62,67.5c-0.2,2-0.4,3.7-0.5,5.1C61.4,73.7,61.3,74.4,61.4,74.4z"/>
					</g>
				</g>
			</g>
		</g>
		<g>
			<g>
				<g>
					<g>
						<path class="st1" d="M6.4,64.1c0,0.1,0.8,0.1,2.2,0.3c1.4,0.1,3.5,0.3,6,0.6c5,0.5,12,1.5,19.6,3c7.6,1.4,14.4,3,19.3,4.4
							c2.5,0.6,4.4,1.2,5.8,1.6c1.4,0.4,2.1,0.6,2.1,0.5c0-0.1-0.7-0.3-2.1-0.8c-1.3-0.5-3.3-1.1-5.7-1.8
							c-4.9-1.4-11.7-3.1-19.3-4.6c-7.6-1.4-14.6-2.3-19.7-2.7c-2.5-0.2-4.6-0.3-6-0.3C7.1,64.1,6.4,64.1,6.4,64.1z"/>
					</g>
				</g>
			</g>
		</g>
		<g>
			<g>
				<g>
					<g>
						<path class="st1" d="M85.3,135.5c0,0,0.2-0.2,0.4-0.7c0.3-0.5,0.6-1.2,0.9-2c0.8-1.7,1.9-4.3,3.2-7.4c2.7-6.3,6-15.1,9.7-24.9
							c3.6-9.8,6.9-18.6,9.4-25c1.2-3.1,2.2-5.6,3-7.5c0.3-0.8,0.6-1.5,0.8-2c0.2-0.5,0.3-0.7,0.2-0.7c0,0-0.2,0.2-0.4,0.7
							c-0.3,0.5-0.6,1.2-0.9,2c-0.8,1.7-1.9,4.3-3.2,7.4c-2.7,6.3-6,15.1-9.7,24.9c-3.6,9.8-6.9,18.6-9.4,25c-1.2,3.1-2.2,5.6-3,7.5
							c-0.3,0.8-0.6,1.5-0.8,2C85.4,135.3,85.3,135.5,85.3,135.5z"/>
					</g>
				</g>
			</g>
		</g>
		<g>
			<g>
				<g>
					<g>
						<path class="st1" d="M12.2,112c0,0,0.2,0.1,0.7,0.3c0.6,0.2,1.3,0.4,2.1,0.7c2,0.6,4.6,1.5,7.8,2.5c6.6,2.1,15.7,5.2,25.8,8.6
							c10,3.4,19.2,6.4,25.8,8.4c3.3,1,6,1.8,7.9,2.3c0.9,0.2,1.6,0.4,2.2,0.6c0.5,0.1,0.8,0.2,0.8,0.1s-0.2-0.1-0.7-0.3
							c-0.6-0.2-1.3-0.4-2.1-0.7c-2-0.6-4.6-1.5-7.8-2.5c-6.6-2.1-15.7-5.2-25.8-8.6c-10-3.4-19.2-6.4-25.8-8.4
							c-3.3-1-6-1.8-7.9-2.3c-0.9-0.2-1.6-0.4-2.2-0.6C12.5,112,12.2,112,12.2,112z"/>
					</g>
				</g>
			</g>
		</g>
	</g>
</g>
<g id="Background_Simple" class="st2">
	<path class="st3" d="M497.3-151.1c24,68.6,3.3,148.5-44.8,202.9c-48.1,54.4-120.3,84.4-192.7,89.3c-51.7,3.5-120.4-5.7-163.5-34.5
		S23,35.6,33.4-18.9c3.7-19.2,16.1-45,30.9-57.8c23.7-20.5,59-16.7,89.9-11.7s66.2,8.8,90-11.5c18.2-15.6,23.9-41,35.2-62.2
		c19.2-36.1,57.5-61.2,98.2-64.5c5.7-0.5,11.3-0.5,17-0.1c44,2.9,82.4,30.7,100.5,70.9L497.3-151.1z"/>
</g>
<g id="Floor">
</g>
<g id="Device">
</g>
<g id="Character">
</g>
<g id="Plant">
</g>
<g id="Speech_Bubble">
</g>
</svg>
