<?xml version="1.0" encoding="utf-8"?>
<!-- Generator: Adobe Illustrator 24.1.0, SVG Export Plug-In . SVG Version: 6.00 Build 0)  -->
<svg version="1.1" id="Layer_1" xmlns="http://www.w3.org/2000/svg" xmlns:xlink="http://www.w3.org/1999/xlink" x="0px" y="0px"
	 viewBox="0 0 585.3 399.2" style="enable-background:new 0 0 585.3 399.2;" xml:space="preserve">
<style type="text/css">
	.st0{fill:#F5F5F5;}
	.st1{fill:#E0E0E0;}
	.st2{fill:#FAFAFA;}
	.st3{display:none;}
	.st4{display:inline;fill:#F5F5F5;}
	.st5{fill:#263238;}
	.st6{fill:#FFFFFF;}
	.st7{fill:#455A64;}
	.st8{fill:#E8505B;}
	.st9{fill:#537CF0;}
	.st10{fill:#00A6EB;}
	.st11{fill:#B77153;}
	.st12{fill:#995037;}
	.st13{fill:#9F150F;}
	.st14{fill:none;stroke:#4E585D;stroke-miterlimit:10;}
</style>
<g id="Background_Complete">
	<g>
		<path class="st0" d="M378.6,134.9V179c0,7.7,6.5,14.1,14.4,14.1h158.1c8,0,14.4-6.5,14.4-14.4v-37.3l19.7-20.7l-192.2-0.6
			C385.1,120.1,378.6,126.6,378.6,134.9z"/>
		<g>
			<polygon class="st1" points="542.3,146.9 398.8,146.2 398.9,141.8 542.3,142.5 			"/>
		</g>
		<g>
			<polygon class="st1" points="542.3,161.4 398.8,160.7 398.9,156.3 542.3,157 			"/>
		</g>
		<g>
			<polygon class="st1" points="542.3,175.5 485.6,175.3 485.6,170.8 542.3,171.1 			"/>
		</g>
	</g>
	<g>
		<path class="st1" d="M160.2,89.3v34.2c0,6.2-5,11.2-11.2,11.2H26.4c-6.2,0-11.2-5-11.2-11.2V94.6L0,78.6l148.9-0.5
			C155.1,78.1,160.2,83.1,160.2,89.3z"/>
		<g>
			<polygon class="st2" points="33.3,98.8 144.5,98.3 144.5,94.9 33.3,95.4 			"/>
		</g>
		<g>
			<polygon class="st2" points="33.3,110 144.5,109.5 144.5,106.1 33.3,106.6 			"/>
		</g>
		<g>
			<polygon class="st2" points="33.3,121 77.3,120.8 77.3,117.4 33.3,117.6 			"/>
		</g>
	</g>
</g>
<g id="Background_Simple" class="st3">
	<path class="st4" d="M513.8,55.9c24,68.6,3.3,148.5-44.8,202.9c-48.1,54.4-120.3,84.4-192.7,89.3c-51.7,3.5-120.4-5.7-163.5-34.5
		C69.5,284.8,39.5,242.6,49.9,188c3.7-19.2,16.1-45,30.9-57.8c23.7-20.5,59-16.7,89.9-11.7s66.2,8.8,90-11.5
		c18.2-15.6,23.9-41,35.2-62.2c19.2-36.1,57.5-61.2,98.2-64.5c5.7-0.5,11.3-0.5,17-0.1c44,2.9,82.4,30.7,100.5,70.9L513.8,55.9z"/>
</g>
<g id="Floor">
	<g>
		<path class="st5" d="M572.9,398.9c0,0.1-129,0.3-288.1,0.3c-159.2,0-288.2-0.1-288.2-0.3c0-0.1,129-0.3,288.2-0.3
			C443.8,398.6,572.9,398.8,572.9,398.9z"/>
	</g>
</g>
<g id="Device">
	<g>
		<g>
			<g>
				<g>
					<path class="st5" d="M470.5,152.4v235c0,6.4-5.2,11.5-11.5,11.5H111.7c-6.4,0-11.5-5.2-11.5-11.5v-235
						c0-6.4,5.2-11.5,11.5-11.5H459C465.4,140.8,470.5,146,470.5,152.4z"/>
				</g>
				<g>
					<rect x="125.5" y="148.9" class="st6" width="309.3" height="241.8"/>
				</g>
				<g>
					<circle class="st7" cx="451.9" cy="269.9" r="9.9"/>
				</g>
				<g>
					<path class="st7" d="M114.9,232.2v75.3c0,0.7-0.5,1.2-1.2,1.2H112c-0.7,0-1.2-0.5-1.2-1.2v-75.3c0-0.7,0.5-1.2,1.2-1.2h1.7
						C114.3,231,114.9,231.5,114.9,232.2z"/>
				</g>
			</g>
		</g>
		<g>
			<circle class="st8" cx="192.3" cy="277.1" r="25"/>
			<circle class="st1" cx="192.3" cy="277.1" r="25"/>
			<g>
				
					<ellipse transform="matrix(0.9966 -8.220130e-02 8.220130e-02 0.9966 -21.8429 16.0415)" class="st5" cx="183.9" cy="273.3" rx="1.7" ry="2.5"/>
			</g>
			<g>
				
					<ellipse transform="matrix(4.099833e-02 -0.9992 0.9992 4.099833e-02 -81.4088 461.1234)" class="st5" cx="199.5" cy="273" rx="2.5" ry="1.7"/>
			</g>
			<g>
				<ellipse class="st5" cx="191.9" cy="282.1" rx="10.4" ry="0.5"/>
			</g>
			<g>
				<path class="st5" d="M185.6,268c-0.1,0.3-1.2,0.3-2.6,0.5c-1.4,0.2-2.5,0.6-2.7,0.3c-0.2-0.2,0.9-1.1,2.5-1.4
					C184.4,267.2,185.7,267.7,185.6,268z"/>
			</g>
			<g>
				<path class="st5" d="M204.1,269.2c-0.2,0.2-1.3-0.3-2.7-0.7c-1.4-0.4-2.6-0.6-2.6-0.9c0-0.3,1.3-0.6,2.9-0.1
					C203.4,267.9,204.3,269,204.1,269.2z"/>
			</g>
		</g>
		<g>
			<circle class="st8" cx="373.2" cy="275" r="25.9"/>
			<circle class="st7" cx="373.2" cy="274.5" r="25.9"/>
			<g>
				
					<ellipse transform="matrix(0.9966 -8.230063e-02 8.230063e-02 0.9966 -21.0747 30.9199)" class="st6" cx="364.5" cy="271.1" rx="1.8" ry="2.6"/>
			</g>
			<g>
				
					<ellipse transform="matrix(4.099833e-02 -0.9992 0.9992 4.099833e-02 94.5699 640.0192)" class="st6" cx="380.7" cy="270.7" rx="2.6" ry="1.8"/>
			</g>
			<g>
				<path class="st6" d="M383.6,280.2c-0.1,0.1-1.2-0.6-3-1.6c-1.8-0.9-4.6-2-7.7-1.9c-3.1,0.1-5.9,1.1-7.7,2
					c-1.9,0.9-3,1.6-3.1,1.5c-0.1-0.1,0.9-1,2.7-2.1c1.8-1.1,4.7-2.3,8.1-2.4c3.4-0.1,6.3,1.2,8.1,2.3
					C382.8,279.1,383.7,280.1,383.6,280.2z"/>
			</g>
			<g>
				<path class="st6" d="M366.3,265.5c0.1,0.1-0.1,0.4-0.5,0.8c-0.4,0.4-1.1,0.8-2,0.9c-0.9,0.2-1.7,0-2.2-0.2
					c-0.5-0.2-0.8-0.5-0.7-0.7c0.1-0.3,1.4,0.1,2.8-0.1C365,266,366.1,265.3,366.3,265.5z"/>
			</g>
			<g>
				<path class="st6" d="M385.5,266.8c0,0.1-0.2,0.4-0.8,0.6c-0.6,0.2-1.4,0.2-2.3-0.1c-0.9-0.3-1.5-0.8-1.9-1.3
					c-0.4-0.4-0.5-0.8-0.4-0.9c0.2-0.2,1.3,0.7,2.7,1.2C384.1,266.8,385.3,266.5,385.5,266.8z"/>
			</g>
		</g>
		<g>
			<g>
				<polygon class="st9" points="323.6,346.9 329.6,344 335.5,347.2 334.5,340.6 339.4,336 332.8,334.9 330,328.8 326.9,334.8 
					320.2,335.6 324.9,340.4 				"/>
			</g>
			<g>
				<polygon class="st9" points="299.1,346.9 305.1,344 311,347.2 310,340.6 314.9,336 308.3,334.9 305.5,328.8 302.4,334.8 
					295.7,335.6 300.4,340.4 				"/>
			</g>
			<g>
				<polygon class="st9" points="274.6,346.9 280.6,344 286.5,347.2 285.5,340.6 290.4,336 283.8,334.9 281,328.8 277.9,334.8 
					271.2,335.6 275.9,340.4 				"/>
			</g>
			<g>
				<polygon class="st9" points="250.2,346.9 256.2,344 262,347.2 261,340.6 265.9,336 259.3,334.9 256.5,328.8 253.4,334.8 
					246.8,335.6 251.5,340.4 				"/>
			</g>
			<g>
				<polygon class="st9" points="225.7,346.9 231.7,344 237.5,347.2 236.6,340.6 241.5,336 234.9,334.9 232,328.8 228.9,334.8 
					222.3,335.6 227,340.4 				"/>
			</g>
		</g>
		<g>
			<path class="st5" d="M339.7,199.6c0,0.1-26.9,0.3-60,0.3c-33.1,0-60-0.1-60-0.3s26.9-0.3,60-0.3
				C312.8,199.3,339.7,199.5,339.7,199.6z"/>
		</g>
		<g>
			<path class="st5" d="M310.2,192.4c0,0.1-13.3,0.3-29.6,0.3c-16.4,0-29.6-0.1-29.6-0.3s13.3-0.3,29.6-0.3
				C296.9,192.1,310.2,192.2,310.2,192.4z"/>
		</g>
		<g>
			<g>
				<g>
					<circle class="st9" cx="284.8" cy="269.1" r="34.1"/>
					<g>
						
							<ellipse transform="matrix(0.9966 -8.220130e-02 8.220130e-02 0.9966 -20.7659 23.3594)" class="st5" cx="273.3" cy="263.9" rx="2.3" ry="3.4"/>
					</g>
					<g>
						
							<ellipse transform="matrix(4.089850e-02 -0.9992 0.9992 4.089850e-02 19.3577 546.9965)" class="st5" cx="294.6" cy="263.4" rx="3.4" ry="2.4"/>
					</g>
					<g>
						<path class="st5" d="M298.4,271.2c0.1,0.1-0.2,0.4-0.8,1c-0.5,0.6-1.4,1.4-2.6,2.3c-1.2,0.8-2.7,1.8-4.5,2.5
							c-1.8,0.7-4,1.1-6.3,1c-2.3-0.1-4.4-0.7-6.2-1.4c-1.8-0.7-3.3-1.6-4.5-2.4c-2.4-1.6-3.7-2.9-3.6-3c0.1-0.1,1.6,0.9,4,2.3
							c1.3,0.7,2.7,1.5,4.5,2.1c1.7,0.6,3.7,1.2,5.9,1.3c2.1,0.1,4.1-0.3,5.9-0.8c1.8-0.6,3.2-1.4,4.4-2.2c1.2-0.8,2.1-1.5,2.7-2
							C298,271.4,298.4,271.2,298.4,271.2z"/>
					</g>
					<g>
						<path class="st5" d="M274.6,252.8c-0.1,0.3-1.7,0.2-3.6,0.5c-1.9,0.3-3.5,0.9-3.6,0.6c-0.2-0.2,1.3-1.3,3.4-1.7
							C272.9,251.9,274.6,252.5,274.6,252.8z"/>
					</g>
					<g>
						<path class="st5" d="M302,254.4c-0.2,0.2-1.6-0.6-3.6-1.2c-1.9-0.6-3.6-0.7-3.6-1c0-0.3,1.8-0.7,3.9,0
							C300.9,252.8,302.2,254.2,302,254.4z"/>
					</g>
				</g>
				<g>
					<path class="st5" d="M270.6,268.8c0.1,0,0.4,0.3,0.4,1c0,0.6-0.2,1.6-0.7,2.4c-0.6,0.8-1.4,1.3-2,1.5c-0.6,0.2-1,0.1-1,0
						c0-0.3,1.3-0.7,2.2-2.1C270.3,270.2,270.3,268.8,270.6,268.8z"/>
				</g>
				<g>
					<path class="st5" d="M301.3,271.9c0,0.1-0.3,0.3-0.8,0.4c-0.5,0-1.3-0.1-1.9-0.6c-0.7-0.5-1-1.2-1.1-1.7
						c-0.1-0.5,0-0.9,0.1-0.9c0.3,0,0.6,1,1.6,1.7C300.2,271.6,301.3,271.6,301.3,271.9z"/>
				</g>
			</g>
			<g>
				<path class="st10" d="M326.5,268.8c0,0,0-0.2-0.1-0.7c0-0.5-0.1-1.1-0.1-2c0-0.4-0.1-0.9-0.1-1.5c-0.1-0.5-0.2-1.1-0.3-1.8
					c-0.1-0.6-0.2-1.3-0.3-2.1c-0.1-0.7-0.4-1.5-0.6-2.3c-0.7-3.3-2.3-7.1-4.7-11.2c-2.4-4.1-6-8.4-10.7-12
					c-0.6-0.4-1.2-0.9-1.8-1.4c-0.6-0.4-1.3-0.8-2-1.2c-0.7-0.4-1.3-0.9-2.1-1.2c-0.7-0.3-1.5-0.7-2.2-1c-0.4-0.2-0.7-0.4-1.1-0.5
					c-0.4-0.1-0.8-0.3-1.2-0.4c-0.8-0.3-1.6-0.6-2.4-0.9c-0.8-0.3-1.6-0.4-2.5-0.7c-0.8-0.2-1.7-0.5-2.6-0.6
					c-1.7-0.2-3.5-0.6-5.3-0.6c-0.9,0-1.8-0.1-2.7-0.1c-0.9,0-1.9,0.1-2.8,0.1c-0.5,0-0.9,0-1.4,0.1l-1.4,0.2
					c-0.9,0.2-1.9,0.3-2.8,0.5c-1.9,0.5-3.8,0.9-5.6,1.6c-1.9,0.6-3.7,1.5-5.5,2.4c-0.9,0.5-1.7,1-2.6,1.6c-0.4,0.3-0.9,0.5-1.3,0.8
					l-1.2,0.9c-1.7,1.2-3.2,2.6-4.8,4.1c-0.7,0.8-1.4,1.6-2.1,2.4l-0.5,0.6l-0.5,0.6l-1,1.3l-1,1.3l-0.8,1.4l-0.8,1.4l-0.4,0.7
					l-0.4,0.7c-0.5,1-1,2-1.4,3c-0.4,1-0.8,2.1-1.1,3.1c-1.4,4.2-2.1,8.7-2.2,13.3c0.1,4.6,0.8,9.1,2.2,13.3c0.4,1,0.8,2.1,1.1,3.1
					c0.5,1,1,2,1.4,3l0.4,0.7l0.4,0.7l0.8,1.4l0.8,1.4l1,1.3l1,1.3l0.5,0.6l0.5,0.6c0.7,0.8,1.4,1.6,2.1,2.4
					c1.6,1.4,3.1,2.9,4.8,4.1l1.2,0.9c0.4,0.3,0.9,0.5,1.3,0.8c0.9,0.5,1.7,1.1,2.6,1.6c1.8,0.9,3.6,1.8,5.5,2.4
					c1.8,0.8,3.8,1.1,5.6,1.6c0.9,0.2,1.9,0.3,2.8,0.5l1.4,0.2c0.5,0.1,0.9,0.1,1.4,0.1c0.9,0,1.9,0.1,2.8,0.1
					c0.9,0,1.8-0.1,2.7-0.1c1.8,0,3.6-0.4,5.3-0.6c0.9-0.1,1.7-0.4,2.6-0.6c0.8-0.2,1.7-0.4,2.5-0.7c0.8-0.3,1.6-0.6,2.4-0.9
					c0.4-0.1,0.8-0.3,1.2-0.4c0.4-0.2,0.7-0.4,1.1-0.5c0.7-0.4,1.5-0.7,2.2-1c0.7-0.3,1.4-0.8,2.1-1.2c0.7-0.4,1.3-0.8,2-1.2
					c0.6-0.5,1.2-0.9,1.8-1.4c4.8-3.6,8.3-7.9,10.7-12c2.4-4.1,3.9-8,4.7-11.2c0.2-0.8,0.5-1.6,0.6-2.3c0.1-0.7,0.2-1.4,0.3-2.1
					c0.1-0.6,0.2-1.2,0.3-1.8c0-0.5,0.1-1,0.1-1.5c0.1-0.9,0.1-1.5,0.1-2C326.5,269,326.5,268.8,326.5,268.8s0,0.2,0,0.7
					c0,0.5,0,1.1-0.1,2c0,0.4,0,0.9-0.1,1.5c0,0.5-0.2,1.1-0.2,1.8c-0.1,0.6-0.2,1.3-0.3,2.1c-0.1,0.7-0.3,1.5-0.5,2.3
					c-0.7,3.3-2.2,7.2-4.6,11.3c-2.4,4.1-5.9,8.4-10.8,12.1c-0.6,0.5-1.2,0.9-1.8,1.4c-0.6,0.4-1.3,0.8-2,1.2
					c-0.7,0.4-1.3,0.9-2.1,1.2c-0.7,0.4-1.5,0.7-2.2,1.1c-0.4,0.2-0.7,0.4-1.1,0.5c-0.4,0.1-0.8,0.3-1.2,0.4
					c-0.8,0.3-1.6,0.6-2.4,0.9c-0.8,0.3-1.7,0.4-2.5,0.7c-0.9,0.2-1.7,0.5-2.6,0.6c-1.8,0.3-3.5,0.6-5.4,0.6c-0.9,0-1.8,0.1-2.8,0.1
					c-0.9,0-1.9-0.1-2.8-0.1c-0.5,0-1,0-1.4-0.1l-1.4-0.2c-0.9-0.2-1.9-0.3-2.9-0.5c-1.9-0.5-3.8-0.9-5.7-1.7
					c-1.9-0.6-3.7-1.6-5.6-2.4c-0.9-0.5-1.8-1.1-2.7-1.6c-0.4-0.3-0.9-0.5-1.3-0.8l-1.3-0.9c-1.7-1.2-3.3-2.7-4.8-4.1
					c-0.7-0.8-1.4-1.6-2.2-2.4l-0.5-0.6l-0.5-0.6l-1-1.3l-1-1.3l-0.9-1.4l-0.9-1.4l-0.4-0.7l-0.4-0.7c-0.5-1-1-2-1.5-3
					c-0.4-1-0.8-2.1-1.2-3.2c-1.4-4.3-2.1-8.8-2.2-13.5c0.1-4.6,0.8-9.2,2.2-13.5c0.4-1.1,0.8-2.1,1.2-3.2c0.5-1,1-2,1.5-3l0.4-0.7
					l0.4-0.7l0.9-1.4l0.9-1.4l1-1.3l1-1.3l0.5-0.6l0.5-0.6c0.7-0.8,1.5-1.6,2.2-2.4c1.6-1.4,3.1-2.9,4.8-4.1l1.3-0.9
					c0.4-0.3,0.9-0.6,1.3-0.8c0.9-0.5,1.8-1.1,2.7-1.6c1.9-0.9,3.7-1.8,5.6-2.4c1.9-0.8,3.8-1.1,5.7-1.7c1-0.2,1.9-0.3,2.9-0.5
					l1.4-0.2c0.5-0.1,1-0.1,1.4-0.1c0.9,0,1.9-0.1,2.8-0.1c0.9,0,1.9,0.1,2.8,0.1c1.8,0,3.6,0.4,5.4,0.6c0.9,0.1,1.7,0.4,2.6,0.6
					c0.8,0.2,1.7,0.4,2.5,0.7c0.8,0.3,1.6,0.6,2.4,0.9c0.4,0.1,0.8,0.3,1.2,0.4c0.4,0.2,0.8,0.4,1.1,0.5c0.7,0.4,1.5,0.7,2.2,1.1
					c0.7,0.3,1.4,0.8,2.1,1.2c0.7,0.4,1.4,0.8,2,1.2c0.6,0.5,1.2,0.9,1.8,1.4c4.8,3.7,8.3,8,10.8,12.1c2.4,4.1,3.9,8,4.6,11.3
					c0.2,0.8,0.5,1.6,0.5,2.3c0.1,0.7,0.2,1.4,0.3,2.1c0.1,0.6,0.2,1.2,0.2,1.8c0,0.5,0,1,0.1,1.5c0,0.9,0.1,1.5,0.1,2
					C326.5,268.6,326.5,268.8,326.5,268.8z"/>
			</g>
		</g>
		<rect x="125.5" y="148.9" class="st1" width="309.3" height="15.4"/>
		<circle class="st6" cx="133.4" cy="156.2" r="2.1"/>
		<circle class="st6" cx="140.3" cy="156.2" r="2.1"/>
		<circle class="st6" cx="147.2" cy="156.2" r="2.1"/>
		<g>
			<path class="st1" d="M400.7,211.8c0,0.1-53.7,0.3-119.9,0.3c-66.2,0-119.9-0.1-119.9-0.3c0-0.1,53.7-0.3,119.9-0.3
				C347,211.5,400.7,211.6,400.7,211.8z"/>
		</g>
		<g>
			<path class="st1" d="M400.7,217.7c0,0.1-53.7,0.3-119.9,0.3c-66.2,0-119.9-0.1-119.9-0.3c0-0.1,53.7-0.3,119.9-0.3
				C347,217.4,400.7,217.6,400.7,217.7z"/>
		</g>
	</g>
</g>
<g id="Character">
	<g>
		<g>
			<g>
				<g>
					<path class="st7" d="M243.4,142.4c0,0-2.1-4.8-2.5-5.8c-1.1-2.9-8-22.1-6.3-25c7.7-13.5,13.6-23,28.8-23l26.7-0.2
						c0,0,25.3-5.2,43.2,52.4L243.4,142.4z"/>
					<path class="st7" d="M187,147.3l35-7.5l41.1-21.6l0.2-29.5c-6.2-1.7-18,2.6-39.3,13.4l-31.6,16.3
						C181.6,123.9,178.9,138.1,187,147.3L187,147.3z"/>
				</g>
				<g>
					<g>
						<g>
							<path class="st11" d="M265.8,204.4c-0.5-1.7-0.2-2.7,2.3-1.9c5.3,1.8,10.1,1.2,11.3,0.2c1.2-1,0.1-3-1.6-2.9
								c-1.4,0.1-3.8-0.3-5.6-0.8c-1.5-0.4-2.9-0.9-4.2-1.8c-1.1-0.7-2.1-1.4-2.9-2c0,0-4.9-3.6-6.5-6.4l-16.9,7.2l2.7,8.5
								c0,0,0.9,5,5.7,6.6c4.8,1.6,12.5,1,12.5,1c1.4-0.9,6.8,6.9,8.5,9.7c1.6,2.7,3.6,3.1,4.2,1.4c0.4-1.2-4.4-9.8-6.1-12.5
								C268.2,209.3,266.4,206.4,265.8,204.4"/>
						</g>
						<g>
							<path class="st12" d="M254.3,212.1c0,0.1-0.4,0-1-0.2c-0.6-0.3-1.3-0.9-1.8-1.7c-0.5-0.9-0.6-1.8-0.5-2.4
								c0.1-0.6,0.3-1,0.3-1c0.2,0-0.2,1.6,0.7,3.1C252.9,211.5,254.4,212,254.3,212.1z"/>
						</g>
						<g>
							<path class="st12" d="M259.7,212.3c0,0.1-0.4,0-0.9-0.3c-0.5-0.3-1.2-0.9-1.6-1.7c-0.4-0.8-0.6-1.7-0.5-2.3
								c0.1-0.6,0.2-1,0.3-0.9c0.2,0-0.1,1.5,0.7,3C258.3,211.6,259.7,212.2,259.7,212.3z"/>
						</g>
					</g>
					<g>
						<path class="st7" d="M186,146.1c0,0,53.6,61.6,53.6,60.6s24-19,24-19L211,125.1L186,146.1z"/>
						<g>
							<path class="st5" d="M218.5,134c0,0,0.1,0.1,0.4,0.4c0.3,0.3,0.6,0.7,1,1.1c0.9,1,2.1,2.4,3.6,4.2c3,3.5,7.2,8.4,11.7,13.9
								c4.6,5.4,8.7,10.4,11.6,14c1.4,1.8,2.6,3.2,3.5,4.3c0.4,0.5,0.7,0.9,0.9,1.2c0.2,0.3,0.3,0.4,0.3,0.4s-0.1-0.1-0.4-0.4
								c-0.3-0.3-0.6-0.7-1-1.1c-0.9-1-2.1-2.4-3.6-4.2c-3-3.5-7.2-8.4-11.7-13.9c-4.6-5.4-8.7-10.4-11.6-14
								c-1.4-1.8-2.6-3.2-3.5-4.3c-0.4-0.5-0.7-0.9-0.9-1.2C218.6,134.2,218.5,134,218.5,134z"/>
						</g>
					</g>
				</g>
				<g>
					<path class="st5" d="M313.4,141.1c-0.1,0,0.6-1.5,0.6-3.9c0-1.2-0.2-2.7-0.7-4.2c-0.5-1.5-1.5-3.1-2.8-4.4
						c-1.3-1.4-2.7-2.5-3.8-3.8c-1.1-1.2-2-2.5-2.4-3.7c-0.5-1.2-0.5-2.3-0.4-3c0.1-0.7,0.3-1.1,0.3-1.1c0.1,0-0.5,1.6,0.5,3.9
						c0.5,1.1,1.3,2.4,2.4,3.5c1.1,1.2,2.5,2.4,3.9,3.8c1.3,1.4,2.4,3,2.9,4.6c0.5,1.6,0.7,3.1,0.6,4.4c-0.1,1.3-0.3,2.3-0.6,2.9
						C313.6,140.8,313.4,141.1,313.4,141.1z"/>
				</g>
				<g>
					<path class="st5" d="M241,93.7c0,0,0.3-0.1,0.8-0.4c0.5-0.2,1.3-0.5,2.3-0.8c1-0.3,2.3-0.6,3.8-0.8c1.5-0.1,3.3-0.1,5.2,0.5
						c1.9,0.6,3.7,1.7,5.3,3.4c1.6,1.7,2.6,4,3.2,6.5c0.5,2.5,0.8,5.2,0.5,8c-0.3,2.8-1.2,5.6-3,8c-1.7,2.4-4.1,4.2-6.4,5.7
						c-2.3,1.5-4.7,2.7-6.9,3.9c-4.5,2.3-8.5,4.5-11.9,6.2c-3.4,1.7-6.1,3.2-8,4.2c-0.9,0.5-1.7,0.8-2.2,1.1
						c-0.5,0.2-0.8,0.4-0.8,0.4s0.2-0.2,0.7-0.5c0.5-0.3,1.3-0.7,2.2-1.2c1.9-1,4.6-2.5,8-4.3c3.4-1.8,7.4-4,11.8-6.3
						c2.2-1.2,4.6-2.4,6.9-3.9c2.3-1.5,4.6-3.2,6.3-5.6c1.7-2.3,2.6-5.1,2.9-7.8c0.3-2.7,0-5.4-0.5-7.8c-0.5-2.4-1.5-4.7-3-6.3
						c-1.5-1.6-3.3-2.8-5.1-3.3c-1.8-0.6-3.5-0.6-5-0.5c-1.5,0.1-2.8,0.4-3.8,0.7c-1,0.3-1.8,0.6-2.3,0.7
						C241.3,93.6,241.1,93.7,241,93.7z"/>
				</g>
				<g>
					<path class="st5" d="M224.4,139.7c-0.2,0-0.6-3.5-3-7.1c-2.3-3.6-5.4-5.5-5.3-5.7c0-0.1,0.8,0.3,2,1.2c1.1,0.9,2.6,2.3,3.8,4.1
						c1.2,1.9,1.9,3.7,2.2,5.1C224.4,138.8,224.5,139.6,224.4,139.7z"/>
				</g>
				<g>
					<path class="st2" d="M303.2,133c0,0-0.4,0.2-1.1,0.3c-0.8,0.2-1.9,0.3-3.4,0.1c-1.5-0.1-3.3-0.6-5.1-1.7
						c-1.8-1.1-3.6-2.8-4.7-5.3c-1.1-2.4-1.5-5.5-0.6-8.5c0.5-1.5,1.4-3,2.8-3.9c0.7-0.5,1.7-0.7,2.6-0.5c0.9,0.2,1.7,0.8,2.2,1.5
						c2,3,2.4,7,1.2,10.7c-0.6,1.8-1.6,3.6-3,5c-1.4,1.4-3.2,2.4-5.2,2.9c-3.9,1-8.3,0.1-11.1-2.6c-2.8-2.7-3.9-6.7-3.3-10.2
						c0.3-1.8,1-3.4,2-4.7c0.5-0.6,1.2-1.2,2-1.5c0.8-0.3,1.7-0.3,2.5,0c1.5,0.7,2.4,2.2,2.6,3.6c0.2,1.5-0.3,2.9-0.8,4.1
						c-1.2,2.4-2.7,4.2-4.3,5.7c-1.5,1.4-3.1,2.4-4.4,3.1c-1.3,0.7-2.4,1.1-3.1,1.3c-0.4,0.1-0.7,0.2-0.8,0.2
						c-0.2,0-0.3,0.1-0.3,0.1c0,0,0.1,0,0.3-0.1c0.2-0.1,0.5-0.1,0.8-0.3c0.7-0.3,1.8-0.7,3.1-1.4c1.3-0.7,2.8-1.7,4.3-3.1
						c1.5-1.4,3-3.3,4.1-5.6c0.5-1.2,0.9-2.5,0.7-3.9c-0.2-1.3-1-2.7-2.4-3.3c-0.7-0.3-1.4-0.3-2.1,0c-0.7,0.3-1.3,0.8-1.8,1.4
						c-1,1.3-1.7,2.8-1.9,4.5c-0.5,3.3,0.5,7.2,3.2,9.7c2.7,2.6,6.9,3.5,10.6,2.5c1.9-0.5,3.6-1.5,5-2.8c1.4-1.3,2.3-3,2.9-4.8
						c0.6-1.8,0.8-3.6,0.6-5.4c-0.1-0.9-0.3-1.7-0.6-2.6c-0.3-0.8-0.6-1.6-1.1-2.3c-0.5-0.7-1.2-1.2-1.9-1.3c-0.8-0.2-1.6,0-2.2,0.5
						c-1.3,0.8-2.2,2.2-2.6,3.6c-0.9,2.9-0.5,5.9,0.6,8.2c1,2.4,2.7,4.1,4.5,5.2c1.8,1.1,3.5,1.5,5,1.7
						C301.6,133.5,303.2,132.9,303.2,133z"/>
				</g>
				<g>
					<g>
						<path class="st12" d="M307.3,73c-1.1-1.4-2-3-2.4-4.8c-0.1-0.6-0.2-1.2-0.1-1.7c0.2-0.6,0.7-1,1.3-1c0.6,0.1,1,0.6,1.3,1.1
							c0.9,1.5,1.9,3,2.5,4.7c0.2,0.5,0.3,0.9,0.3,1.4c0,0.5-0.3,1-0.7,1.2c-0.5,0.2-1.1,0.1-1.5-0.2c-0.4-0.3-0.7-0.8-1-1.2"/>
						<path class="st12" d="M309.8,71.8c-0.9-1.8-1.8-3.7-2.6-5.5c-0.3-0.5-0.5-1.1-0.5-1.7c0-0.6,0.3-1.3,0.9-1.5
							c0.5-0.2,1.1,0,1.5,0.4c0.4,0.4,0.6,0.8,0.9,1.3c0.4,0.8,0.8,1.6,1.2,2.4c0.3,0.7,0.7,1.3,0.8,2.1c0.1,0.7,0,1.5-0.4,2.1
							c-0.5,0.6-1.3,0.8-2,0.5"/>
						<path class="st11" d="M298.1,89c0,0-3.7-4.8-4-7.3c-0.3-2.5,2.8-7,9.4-8c3.5-0.5,5.6-1.5,6.8-2.3c0.8-0.6,1.2-1.6,0.8-2.6
							c-0.9-2.1-2.4-6-2.3-6.5c0.3-1.3,1.2-1.3,3.5,2s4.9,6.7,4.4,8.3c-0.5,1.5-8.6,6.3-8.6,6.3l2.2,3.6L298.1,89z"/>
					</g>
					<path class="st7" d="M319.9,138l-25.4-49.7l16.3-9.2l34.3,54.4c0,0,1.8,3.5,4.3,7.5h-28.8"/>
				</g>
			</g>
			<g>
				<path class="st5" d="M310.6,79.2c0,0-0.1,0.1-0.3,0.2c-0.2,0.1-0.5,0.3-0.9,0.5c-0.8,0.5-1.9,1.1-3.3,1.9c-2.9,1.6-7,4-11.8,6.7
					l0.1-0.3c2.5,5,5.7,10.9,8.9,17.2c4.8,9.4,9,17.9,11.9,24.2c1.5,3.1,2.6,5.7,3.4,7.4c0.4,0.8,0.7,1.5,0.9,2
					c0.2,0.5,0.3,0.7,0.3,0.7s-0.1-0.2-0.4-0.7c-0.2-0.5-0.6-1.2-1-2c-0.9-1.8-2.1-4.3-3.6-7.3c-3-6.2-7.2-14.7-12-24.1
					c-3.2-6.3-6.4-12.2-8.8-17.2l-0.1-0.2l0.2-0.1c4.9-2.7,9-4.9,11.9-6.6c1.4-0.8,2.5-1.4,3.3-1.8c0.4-0.2,0.7-0.3,0.9-0.5
					C310.5,79.2,310.6,79.1,310.6,79.2z"/>
			</g>
			<g>
				<path class="st5" d="M243.4,142.4c-0.1,0.1-1.5-2.4-2.7-5.6c-1.2-3.3-1.6-6-1.5-6.1c0.2,0,0.8,2.7,2,5.9
					C242.3,139.8,243.5,142.4,243.4,142.4z"/>
			</g>
		</g>
		<g>
			<path class="st5" d="M299.3,69.2c4,1.6,8.9,0.2,11.6-3.2s2.7-8.5,0.3-12c5.7-1.4,9.3-8.1,8.1-13.9s-6.3-10.3-12.1-11.6
				c-2.2-0.5-4.6-0.5-6.7,0.2c-2.1,0.7-4.1,2.2-5,4.3"/>
			<g>
				<path class="st13" d="M298.4,56.2c0,0.1-0.7,0.2-2,0.8c-1.2,0.6-2.8,1.9-3.8,4.1c-0.5,1.1-0.8,2.4-0.7,3.8
					c0.1,1.4,0.5,2.9,1.4,4.2c0.4,0.7,1,1.3,1.6,1.8c0.6,0.5,1.3,1,2.1,1.3c1.6,0.7,3.4,0.9,5.2,0.5c1.8-0.4,3.4-1.4,4.5-2.7
					c0.6-0.6,1-1.4,1.4-2.1c0.3-0.8,0.6-1.5,0.6-2.3c0.2-1.6-0.1-3.1-0.6-4.4c-0.5-1.3-1.4-2.4-2.3-3.1c-1.9-1.6-3.9-2-5.2-2.1
					C299.2,56,298.5,56.3,298.4,56.2c0,0,0.2-0.1,0.5-0.1c0.4-0.1,0.9-0.2,1.6-0.2c1.4,0,3.5,0.4,5.5,2c1,0.8,1.9,1.9,2.5,3.2
					c0.6,1.4,0.9,3,0.7,4.6c-0.1,0.8-0.3,1.7-0.7,2.5c-0.3,0.8-0.8,1.6-1.4,2.3c-1.2,1.4-2.9,2.4-4.8,2.9c-1.9,0.4-3.9,0.2-5.5-0.5
					c-0.8-0.4-1.6-0.8-2.3-1.4c-0.7-0.6-1.2-1.2-1.7-1.9c-0.9-1.4-1.3-3-1.4-4.5c-0.1-1.5,0.3-2.9,0.8-4c1.1-2.3,2.8-3.6,4.1-4.2
					c0.6-0.3,1.1-0.5,1.5-0.5C298.3,56.2,298.4,56.2,298.4,56.2z"/>
			</g>
			<path class="st5" d="M302.8,40.4c4.1-0.2,8-3.4,9-7.4c1-4-0.8-8.6-4.3-10.8c1.7-4.8,0-10.6-4-13.7s-10-3.4-14.3-0.6
				c-3.2-5.7-10.2-9-16.6-8c-6.5,1-12,6.4-13.3,12.8c-5.8-2.4-13-0.9-17.4,3.7s-5.5,11.9-2.7,17.5c-6.3,0.5-11.6,6.8-11,13.1
				s6.8,11.6,13.1,11.1c-1.3,4.2,0.3,9.1,3.9,11.7s8.7,2.7,12.4,0.3c2.3,3.8,6.9,6,11.3,5.5s8.3-3.7,9.8-7.9"/>
			<g>
				<g>
					<g>
						<path class="st11" d="M290.7,87.4c0.2-4.9,0.5-9.3,0.5-9.3s10.9-1.4,11.4-12.5c0.5-11.1-0.6-36.7-0.6-36.7l-20-9.6l-21.6,17.4
							l3.4,51c0.5,7.4,6.8,13,14.1,12.6l0,0C284.9,100,290.4,94.3,290.7,87.4z"/>
					</g>
					<g>
						<g>
							<g>
								<path class="st5" d="M301.4,47.9c-0.2,0.2-1.2-0.7-2.7-0.7c-1.5-0.1-2.6,0.7-2.8,0.5c-0.1-0.1,0.1-0.4,0.6-0.8
									c0.5-0.4,1.3-0.7,2.2-0.6c0.9,0,1.7,0.4,2.1,0.8C301.3,47.5,301.5,47.8,301.4,47.9z"/>
							</g>
						</g>
					</g>
					<g>
						<g>
							<g>
								<path class="st5" d="M284.9,47.9c-0.2,0.2-1.2-0.7-2.7-0.7c-1.5-0.1-2.6,0.7-2.8,0.5c-0.1-0.1,0.1-0.4,0.6-0.8
									c0.5-0.4,1.3-0.7,2.2-0.6c0.9,0,1.7,0.4,2.1,0.8C284.8,47.5,285,47.8,284.9,47.9z"/>
							</g>
						</g>
					</g>
					<g>
						<g>
							<path class="st5" d="M290.5,59.1c0-0.1,0.9-0.2,2.4-0.4c0.4,0,0.7-0.1,0.8-0.4c0.1-0.3-0.1-0.7-0.2-1.2
								c-0.3-1-0.7-2.1-1.1-3.2c-1.5-4.5-2.6-8.2-2.4-8.2s1.5,3.5,3,8c0.4,1.1,0.7,2.2,1,3.2c0.1,0.5,0.4,1,0.2,1.6
								c-0.1,0.3-0.4,0.5-0.6,0.6c-0.2,0.1-0.5,0.1-0.6,0.1C291.4,59.3,290.5,59.2,290.5,59.1z"/>
						</g>
					</g>
					<g>
						<path class="st12" d="M291.2,78.1c0,0-7.3,0.2-14.4-4.7c0,0,3.4,8.1,14.2,7.4L291.2,78.1z"/>
					</g>
				</g>
			</g>
			<path class="st5" d="M275.8,19.9c-3.6,4.9-3.5,12.2,0.2,17c1.6,2.1,4.1,3.9,6.7,3.8s5.3-2.6,4.7-5.2c-1,3.3,1.7,7.1,5.2,7.2
				s6.3-3.7,5.4-7c0.3,1.2,0.6,2.4,1.2,3.4c0.7,1,1.9,1.8,3.1,1.6c1.7-0.2,2.6-2,3-3.7c1.1-4.9-0.7-10.3-4.3-13.8s-8.8-5.2-13.9-4.9
				c-5,0.3-9.9,2.6-13.6,6"/>
			<path class="st5" d="M277.2,23.8c1.3,3.2,2.3,6.5,2.2,10c0,3.4-1.2,6.9-3.6,9.4c-2.4,2.4-6.3,3.5-9.4,2.3c0.8,3,0.5,6.4-1.4,8.9
				c-1.9,2.5-5.5,3.7-8.2,2.2c-2.5-1.3-3.5-4.3-3.9-7.1c-0.8-6.7,1.6-13.8,6.3-18.6s11.7-7.4,18.4-6.8"/>
			<g>
				<g>
					<path class="st11" d="M263.4,50.3c-1.5-0.9-3.5-0.2-4.7,1.1c-1.9,2-2.2,5.3-0.8,7.6c1.4,2.3,4.5,3.6,7.1,2.9"/>
					<g>
						<path class="st12" d="M263.1,58.6c0,0.1-0.5,0.1-1.3-0.1c-0.7-0.2-1.9-0.8-2.3-2c-0.2-0.6-0.2-1.3,0.1-1.8
							c0.2-0.5,0.6-0.9,0.9-1.1c0.7-0.5,1.2-0.4,1.2-0.4c0,0.1-0.4,0.2-1,0.7c-0.5,0.4-1.1,1.4-0.7,2.4c0.3,1,1.3,1.6,1.9,1.9
							C262.6,58.4,263.1,58.5,263.1,58.6z"/>
					</g>
				</g>
			</g>
			<g>
				<path class="st5" d="M285.8,43.3c-0.1,0.4-1.8,0.3-3.7,0.4c-1.9,0.1-3.5,0.3-3.7-0.1c-0.2-0.4,1.4-1.4,3.7-1.5
					C284.3,42,285.9,42.9,285.8,43.3z"/>
			</g>
			<g>
				<path class="st14" d="M281.4,42.5"/>
			</g>
			<g>
				<path class="st5" d="M301.4,43c-0.2,0.2-0.5,0.1-0.9,0c-0.4-0.1-0.8-0.1-1.4-0.1c-0.6,0.1-1.2,0.2-1.7,0.2
					c-0.5,0-0.8-0.1-0.9-0.3c-0.1-0.2,0.2-0.5,0.6-0.8c0.4-0.3,1-0.6,1.9-0.7c0.9-0.1,1.8,0.3,2.1,0.8
					C301.5,42.5,301.5,42.8,301.4,43z"/>
			</g>
			<path class="st12" d="M287.9,62c0.8-0.5,1.9-0.7,2.8-0.4c0.9,0.3,1.6,1.3,1.4,2.3c-0.1,0.5-0.5,1-0.9,1.3
				c-0.7,0.5-1.5,0.7-2.3,0.6c-0.8-0.2-1.5-0.8-1.7-1.6c-0.2-0.8,0.2-1.7,0.9-2.1"/>
			<g>
				<path class="st5" d="M293.3,63.2c0,0.1-0.4,0.3-1.1,0.5c-0.7,0.2-1.8,0.2-2.8-0.3c-1-0.4-1.8-1.2-2.2-1.8
					c-0.4-0.6-0.5-1.1-0.4-1.1c0.1,0,0.3,0.3,0.7,0.9c0.4,0.5,1.1,1.1,2.1,1.5c0.9,0.4,1.9,0.4,2.6,0.4
					C292.9,63.2,293.3,63.1,293.3,63.2z"/>
			</g>
			<g>
				<path class="st13" d="M270.8,68.5c-0.1,0,0-0.8-0.4-2.1c-0.3-1.3-1.2-3.2-3.2-4.6c-1-0.7-2.2-1.3-3.6-1.6
					c-1.4-0.2-2.9-0.2-4.4,0.4c-0.7,0.3-1.5,0.7-2.1,1.2c-0.7,0.5-1.3,1.1-1.8,1.8c-1,1.4-1.6,3.1-1.6,5c0,1.8,0.6,3.6,1.6,5
					c0.5,0.7,1.1,1.3,1.8,1.8c0.7,0.5,1.4,0.9,2.1,1.2c1.5,0.6,3,0.6,4.4,0.4c1.4-0.2,2.6-0.8,3.6-1.6c1.9-1.5,2.8-3.4,3.2-4.6
					C270.8,69.2,270.7,68.5,270.8,68.5c0,0,0,0.2,0,0.6c0,0.4,0,0.9-0.2,1.6c-0.3,1.3-1.1,3.3-3.1,4.9c-1,0.8-2.3,1.4-3.7,1.7
					c-1.5,0.3-3.1,0.2-4.7-0.4c-0.8-0.3-1.6-0.7-2.3-1.2c-0.7-0.5-1.4-1.1-1.9-1.9c-1.1-1.5-1.7-3.3-1.7-5.3c0-1.9,0.6-3.8,1.7-5.3
					c0.5-0.7,1.2-1.4,1.9-1.9c0.7-0.5,1.5-0.9,2.3-1.2c1.6-0.6,3.2-0.6,4.7-0.4c1.5,0.3,2.7,0.9,3.7,1.7c2,1.6,2.8,3.6,3.1,4.9
					c0.2,0.7,0.2,1.2,0.2,1.6C270.8,68.3,270.8,68.5,270.8,68.5z"/>
			</g>
			<g>
				<path class="st7" d="M301.4,18.7c0,0,0.1,0,0.3,0.1c0.2,0.1,0.4,0.2,0.7,0.4c0.5,0.5,1.1,1.5,0.9,2.9c-0.2,1.4-1.6,2.7-3.5,3.1
					c-1.9,0.4-4-0.3-5.9-1.4l-2.1-1.2l2.3,0.7c0.8,0.3,1.3,1,1.5,1.8c0.2,0.8,0.1,1.7-0.3,2.4c-0.4,0.7-1.2,1.2-2,1.4
					c-0.8,0.2-1.7,0.2-2.5-0.1c-2-0.6-3.3-2.3-4.4-3.8l-1.4-2.1l1.8,1.8c1,1,1.3,2.5,1,3.8c-0.3,1.3-1.2,2.3-2.2,2.8
					c-2.1,1-4.4,0.4-5.7-0.7c-1.3-1.1-1.9-2.4-2.2-3.2c-0.1-0.4-0.2-0.8-0.2-1c0-0.2,0-0.4,0-0.4c0,0,0.1,0.5,0.4,1.3
					c0.3,0.8,0.9,2,2.2,3c1.2,1,3.4,1.5,5.3,0.6c1-0.5,1.7-1.4,2-2.5c0.3-1.1,0-2.4-0.9-3.3l0.4-0.3c1,1.4,2.3,3,4.1,3.5
					c1.5,0.4,3.2,0.1,4-1.1c0.7-1.2,0.3-3-0.9-3.4l0.2-0.4c1.8,1.1,3.8,1.8,5.5,1.4c1.7-0.3,3-1.5,3.2-2.7c0.3-1.2-0.2-2.3-0.7-2.7
					C301.7,18.9,301.3,18.8,301.4,18.7z"/>
			</g>
			<g>
				<path class="st7" d="M274.7,36.6c0,0,0,0.1-0.1,0.2c-0.1,0.1-0.2,0.3-0.5,0.5c-0.4,0.4-1.2,1-2.2,1.3c-1.1,0.4-2.5,0.6-4,0.1
					c-1.5-0.5-3.1-1.6-4-3.4l0.4-0.1c-0.4,2.3-2.3,4.7-5,5.3c-2.7,0.6-6-0.8-7.3-3.7c-1.1-2.6-0.4-5.6,1.4-7.3l0.3,0.4
					c-1.2,1-2.8,1.5-4.2,1.5c-1.5,0-2.8-0.4-3.9-1.1c-1.1-0.7-1.9-1.7-2.4-2.8c-0.4-1.1-0.6-2.1-0.5-3.1c0.1-1.9,1-3.3,1.6-4.1
					c0.7-0.8,1.2-1,1.2-1c0,0-0.5,0.3-1.1,1.1c-0.6,0.8-1.4,2.1-1.5,4c0,0.9,0.1,1.9,0.5,2.9c0.4,1,1.2,1.9,2.2,2.6
					c1,0.6,2.3,1,3.7,1c1.4,0,2.8-0.5,3.9-1.4l0.3,0.4c-1.6,1.6-2.3,4.4-1.3,6.7c1.1,2.6,4.2,4,6.7,3.4c2.5-0.6,4.3-2.7,4.7-4.9
					l0.1-0.7l0.3,0.6c0.8,1.7,2.3,2.8,3.7,3.3c1.4,0.5,2.8,0.4,3.9,0c1-0.3,1.8-0.8,2.2-1.2C274.5,36.8,274.7,36.6,274.7,36.6z"/>
			</g>
			<g>
				<path class="st7" d="M254.9,54.4c0,0-0.3,0.2-0.9,0.5c-0.6,0.3-1.6,0.5-2.8,0.4c-1.2-0.1-2.7-0.6-3.8-1.9
					c-1.1-1.2-1.8-3.1-1.5-5.1l0.5,0.2c-0.9,1.2-2.2,2.3-3.8,3.1c-1.2,0.5-2.4,0.8-3.6,0.8c-1.2,0-2.4-0.4-3.4-0.9
					c-2-1.1-3.1-3-3.2-4.7c-0.1-1.7,0.5-3,1-3.8c0.3-0.4,0.6-0.6,0.7-0.8c0.2-0.1,0.3-0.2,0.3-0.2c0,0-0.4,0.3-0.9,1.1
					c-0.5,0.7-1,2-0.8,3.6c0.1,1.6,1.2,3.4,3,4.3c1.8,1,4.3,1.2,6.5,0.1c1.5-0.7,2.7-1.7,3.6-2.9l0.6-0.8l-0.2,1
					c-0.3,1.8,0.3,3.6,1.3,4.7c1,1.2,2.4,1.7,3.5,1.8c1.1,0.1,2.1-0.1,2.7-0.3C254.6,54.5,254.9,54.4,254.9,54.4z"/>
			</g>
			<g>
				<path class="st7" d="M311.5,32.7c0.1,0,0.3,0.7,0.2,1.8c-0.1,1.1-0.6,2.8-1.8,4.1c-1.3,1.3-2.9,1.9-4,2
					c-1.2,0.1-1.9-0.1-1.9-0.1c0-0.1,0.7,0,1.8-0.2c1.1-0.2,2.5-0.8,3.7-2c1.2-1.2,1.7-2.7,1.8-3.8
					C311.5,33.4,311.4,32.7,311.5,32.7z"/>
			</g>
			<g>
				<path class="st7" d="M317.6,43.2c0,0,0.2,0.2,0.2,0.8c0.1,0.5,0.1,1.3-0.2,2.2c-0.3,0.9-1.1,1.9-2.4,2.2c-0.6,0.1-1.4,0.1-2-0.2
					c-0.7-0.3-1.3-0.8-1.6-1.5l0.5-0.2c0.1,0.3,0.1,0.6,0.1,1c0,1.7-1.2,3.1-2.5,3.6c-0.7,0.2-1.4,0.2-2,0.1
					c-0.6-0.2-1.1-0.5-1.5-0.8c-0.8-0.7-1.1-1.5-1.2-2.1c-0.1-0.6,0-0.9,0-0.9c0,0,0,0.3,0.2,0.8c0.1,0.5,0.5,1.3,1.3,1.9
					c0.7,0.6,1.9,1,3.1,0.6c1.1-0.4,2.1-1.7,2.1-3.1c0-0.3,0-0.6-0.1-0.8l0.5-0.2c0.5,1.2,2,1.7,3,1.4c1.1-0.2,1.9-1.1,2.2-1.9
					c0.3-0.8,0.4-1.5,0.3-2C317.7,43.5,317.6,43.2,317.6,43.2z"/>
			</g>
			<g>
				<path class="st5" d="M287.1,58.1c0.1,0,0.1,0.2,0,0.6c-0.1,0.3-0.3,0.8-0.7,1.1c-0.4,0.3-0.9,0.5-1.2,0.5
					c-0.3,0-0.6-0.1-0.6-0.1c0-0.2,0.8-0.2,1.5-0.8C286.8,58.8,287,58,287.1,58.1z"/>
			</g>
		</g>
	</g>
</g>
<g id="Plant">
</g>
<g id="Speech_Bubble">
</g>
</svg>
